<svg width="17" height="16" viewBox="0 0 17 16" fill="none" xmlns="http://www.w3.org/2000/svg">
<path d="M4.17699 7.99999C4.17699 7.60969 4.49479 7.29329 4.88682 7.29329H8.19236V4.00224C8.19236 3.61194 8.51017 3.29553 8.90219 3.29553C9.29422 3.29553 9.61202 3.61194 9.61202 4.00224V7.29329H12.9176C13.3096 7.29329 13.6274 7.60969 13.6274 7.99999C13.6274 8.3903 13.3096 8.7067 12.9176 8.7067H9.61202V11.9977C9.61202 12.388 9.29422 12.7045 8.90219 12.7045C8.51016 12.7045 8.19236 12.388 8.19236 11.9977V8.7067H4.88682C4.49479 8.7067 4.17699 8.3903 4.17699 7.99999Z" fill="#D9D9D9"/>
<path fill-rule="evenodd" clip-rule="evenodd" d="M4.46977 0.243871C7.39195 -0.0812903 10.4124 -0.0812903 13.3346 0.243871C15.0631 0.436213 16.459 1.79182 16.6624 3.52275C17.0118 6.49745 17.0118 9.50255 16.6624 12.4773C16.459 14.2082 15.0631 15.5638 13.3346 15.7561C10.4124 16.0813 7.39195 16.0813 4.46977 15.7561C2.74121 15.5638 1.34531 14.2082 1.14197 12.4773C0.792519 9.50255 0.792519 6.49745 1.14197 3.52275C1.34531 1.79182 2.74121 0.436213 4.46977 0.243871ZM13.1769 1.64854C10.3595 1.33504 7.44484 1.33504 4.62746 1.64854C3.54432 1.76907 2.67734 2.62018 2.55202 3.68694C2.21538 6.55255 2.21538 9.44745 2.55202 12.3131C2.67734 13.3798 3.54432 14.2309 4.62746 14.3515C7.44484 14.665 10.3595 14.665 13.1769 14.3515C14.26 14.2309 15.127 13.3798 15.2523 12.3131C15.589 9.44745 15.589 6.55255 15.2523 3.68694C15.127 2.62018 14.26 1.76907 13.1769 1.64854Z" fill="#D9D9D9"/>
</svg>
