<svg width="15" height="14" viewBox="0 0 15 14" fill="none" xmlns="http://www.w3.org/2000/svg">
<path fill-rule="evenodd" clip-rule="evenodd" d="M-2.56153e-07 8.13989C-2.2561e-07 8.83864 0.506769 9.42151 1.16733 9.48253C2.54843 9.6101 3.93569 9.64239 5.32023 9.57929C5.32507 9.65546 5.33012 9.73162 5.33539 9.80776L5.42846 11.1531C5.48794 12.013 6.39785 12.4937 7.08732 12.0295C8.55776 11.0394 9.83609 9.76364 10.8542 8.27021L11.2216 7.73122C11.5195 7.29422 11.5195 6.70563 11.2216 6.26864L10.8542 5.72964C9.83609 4.23622 8.55777 2.96045 7.08732 1.97036C6.39785 1.50611 5.48794 1.98682 5.42846 2.84673L5.33539 4.19209C5.33012 4.26824 5.32507 4.3444 5.32023 4.42057C3.93569 4.35747 2.54843 4.38975 1.16733 4.51733C0.506767 4.57835 -3.86355e-07 5.16122 -3.55812e-07 5.85996L-2.56153e-07 8.13989ZM5.88405 8.19084C4.35215 8.29355 2.815 8.27437 1.28571 8.13343L1.28571 5.86643C2.81501 5.72549 4.35215 5.70631 5.88405 5.80902C6.0558 5.82053 6.22475 5.75901 6.3531 5.63821C6.48145 5.51741 6.55848 5.34742 6.56695 5.1663C6.5806 4.87424 6.59752 4.58232 6.6177 4.29059L6.68529 3.31352C7.89669 4.1802 8.95463 5.26541 9.80993 6.52008L10.137 6.99993L9.80993 7.47977C8.95463 8.73445 7.89669 9.81966 6.68529 10.6863L6.6177 9.70926C6.59752 9.41753 6.5806 9.12561 6.56695 8.83356C6.55848 8.65244 6.48145 8.48245 6.3531 8.36165C6.22475 8.24085 6.0558 8.17933 5.88405 8.19084Z" fill="#E8E8E8"/>
<path d="M11.7857 12.6452C11.4307 12.6452 11.1429 12.9485 11.1429 13.3226C11.1429 13.6967 11.4307 14 11.7857 14L13.5 14C14.3284 14 15 13.2923 15 12.4194L15 1.58064C15 0.707679 14.3284 -6.26315e-07 13.5 -5.90104e-07L11.7857 -5.1517e-07C11.4307 -4.99651e-07 11.1429 0.303291 11.1429 0.677419C11.1429 1.05155 11.4307 1.35484 11.7857 1.35484L13.5 1.35484C13.6183 1.35484 13.7143 1.45594 13.7143 1.58064L13.7143 12.4194C13.7143 12.5441 13.6183 12.6452 13.5 12.6452L11.7857 12.6452Z" fill="#E8E8E8"/>
</svg>
