<svg width="23" height="14" viewBox="0 0 23 14" fill="none" xmlns="http://www.w3.org/2000/svg">
<path fill-rule="evenodd" clip-rule="evenodd" d="M8.76296 0.494877C8.86714 0.543284 9.02372 0.687517 9.64737 1.30945C10.3121 1.97238 10.4011 2.06942 10.3724 2.09976C10.2436 2.23571 9.9778 2.50422 9.80657 2.67138C9.69467 2.78064 9.56522 2.91012 9.51895 2.9591C9.40076 3.08421 8.42291 4.04481 8.31938 4.13748C8.27238 4.17958 8.19686 4.28026 8.15159 4.36124L8.06926 4.50847L6.64955 4.51491C5.07139 4.52205 5.04899 4.52039 4.92714 4.38741C4.85646 4.3103 4.8043 4.18145 4.8043 4.08399C4.8043 3.90141 4.7863 3.92145 6.41134 2.29353C7.89299 0.809284 8.20204 0.519047 8.36017 0.463481C8.48183 0.420736 8.62792 0.432106 8.76296 0.494877ZM12.516 1.23301C12.6198 1.28339 12.922 1.57359 14.2722 2.9191C15.2196 3.86331 15.9165 4.57538 15.9351 4.61843C16.0164 4.80575 15.9428 5.06293 15.7763 5.17312L15.6829 5.2349L12.3323 5.24641C10.4894 5.25274 8.9404 5.24957 8.89002 5.23935C8.65053 5.1908 8.51146 4.94683 8.5786 4.69301C8.60327 4.59976 8.74699 4.44876 10.1517 3.04018C11.002 2.18758 11.7525 1.44696 11.8197 1.39437C12.1164 1.1619 12.2877 1.12222 12.516 1.23301ZM19.9561 4.86917C20.0466 4.9147 22.3553 7.21108 22.4047 7.30462C22.4628 7.41453 22.4336 7.5604 22.3336 7.66046L22.2502 7.7439L21.9894 7.75154L21.7287 7.75919L21.6986 7.6867C21.6811 7.64449 21.16 7.10671 20.451 6.39929L19.2335 5.18436L19.3775 5.05094C19.4568 4.97756 19.5531 4.89835 19.5916 4.8749C19.6789 4.82166 19.8562 4.81887 19.9561 4.86917ZM8.01268 4.90689C8.10698 5.25307 8.23765 5.46732 8.43684 5.60244L8.56732 5.69092L8.56021 5.96394L8.5531 6.23698L8.40459 6.30431C8.28983 6.35636 8.19875 6.42758 8.00377 6.61773L7.75146 6.8638L7.21441 6.32943C6.91905 6.03555 6.63364 5.76571 6.5802 5.72982C6.44783 5.6409 6.22387 5.56867 6.08061 5.56867C5.8646 5.56867 5.63455 5.66836 5.4398 5.84636L5.31042 5.96461V5.51746C5.31042 5.08305 5.31189 5.06894 5.36221 5.02311C5.44047 4.95185 5.51382 4.91988 5.64253 4.901C5.70673 4.89156 6.26452 4.88256 6.88204 4.881C7.76272 4.87874 8.00653 4.88433 8.01268 4.90689ZM18.8053 5.51368C18.8957 5.55921 21.2045 7.85559 21.2539 7.94913C21.3119 8.05905 21.2828 8.20491 21.1828 8.30497L21.0994 8.38842L20.8134 8.39601L20.5275 8.40363L20.4809 8.31241C20.4526 8.25684 19.9703 7.75817 19.2471 7.0366L18.0599 5.852L18.2139 5.70791C18.2986 5.62866 18.4 5.54423 18.4393 5.52029C18.528 5.46615 18.7045 5.46297 18.8053 5.51368ZM3.60898 5.65971C3.66494 5.69711 3.91789 5.9356 4.17108 6.1897L4.63142 6.65168L3.83736 7.44296C3.10484 8.1729 2.97072 8.32477 2.93376 8.4661L2.92096 8.51502L1.92334 8.51493C0.98786 8.51486 0.921273 8.51214 0.8548 8.47161C0.780225 8.42612 0.707031 8.30019 0.707031 8.21732C0.707031 8.19034 0.721462 8.13494 0.739116 8.0942C0.77645 8.00797 3.07115 5.71293 3.19286 5.64007C3.316 5.56637 3.48096 5.57415 3.60898 5.65971ZM15.2649 5.6676C15.3154 5.69034 15.3801 5.73099 15.4088 5.75793C15.4606 5.80661 15.4609 5.81059 15.4609 6.47808V7.14927L14.9422 7.66212C14.6569 7.94416 14.398 8.20844 14.3668 8.24934C14.2876 8.35317 14.218 8.56895 14.218 8.71067C14.218 8.93331 14.3688 9.25561 14.5205 9.35726L14.5861 9.40122L14.5862 10.2011L14.5862 11.001H13.0786H11.571L11.5711 10.5234L11.5712 10.0457L11.6368 10.0018C11.7222 9.94455 11.8359 9.77642 11.8958 9.61875C11.9334 9.51984 11.9418 9.45435 11.9352 9.30915C11.92 8.97419 11.9555 9.01808 10.6254 7.68926C9.97453 7.03894 9.39261 6.46728 9.33229 6.41892C9.27198 6.37058 9.18652 6.31796 9.1424 6.30201L9.06218 6.27299V6.03992C9.06218 5.82758 9.06679 5.8027 9.11397 5.7597C9.19204 5.68857 9.2654 5.65653 9.3943 5.63724C9.45849 5.62762 10.785 5.62122 12.3421 5.62299C15.0137 5.62603 15.1784 5.62854 15.2649 5.6676ZM6.30197 6.16611C6.35792 6.20352 6.62641 6.45755 6.89859 6.73061L7.39346 7.2271L6.56915 8.04945C6.11581 8.50174 5.72378 8.90545 5.698 8.94661L5.65116 9.02142L4.63492 9.02133C3.68123 9.02126 3.6143 9.01859 3.54778 8.97801C3.47321 8.93252 3.40001 8.80659 3.40001 8.72373C3.40001 8.69675 3.41445 8.64134 3.4321 8.6006C3.46943 8.51437 5.76413 6.21933 5.88584 6.14648C6.00898 6.07277 6.17395 6.08055 6.30197 6.16611ZM17.5854 6.13517C17.6758 6.18071 19.9846 8.47708 20.034 8.57063C20.092 8.68059 20.0629 8.82641 19.9628 8.92647L19.8794 9.00991L17.4112 9.01576C15.0277 9.0214 14.9406 9.02011 14.8721 8.97819C14.7975 8.9325 14.7243 8.80652 14.7243 8.72373C14.7243 8.69675 14.7388 8.64134 14.7564 8.6006C14.7938 8.51437 17.0885 6.21933 17.2102 6.14648C17.3084 6.08766 17.4807 6.08249 17.5854 6.13517ZM8.954 6.77969C9.04446 6.82522 11.3532 9.1216 11.4026 9.21515C11.4607 9.3251 11.4315 9.47092 11.3315 9.57098L11.248 9.65442L8.77986 9.66027C6.39631 9.66591 6.30922 9.66462 6.24077 9.62271C6.16614 9.57701 6.093 9.45104 6.093 9.36824C6.093 9.34126 6.10743 9.28586 6.12508 9.24511C6.16242 9.15889 8.45711 6.86384 8.57883 6.79099C8.67709 6.73218 8.84932 6.727 8.954 6.77969ZM21.9977 8.09767L22.0552 8.14019L22.0611 9.94669C22.0669 11.7092 22.066 11.7542 22.0224 11.7936C21.9468 11.8621 21.8105 11.8966 21.6122 11.8977L21.4223 11.8987L21.4224 10.3392L21.4224 8.77973L21.488 8.73576C21.6335 8.63833 21.7906 8.32489 21.7906 8.13208V8.02588L21.8654 8.04054C21.9065 8.0486 21.9661 8.07431 21.9977 8.09767ZM20.8437 8.7394L20.9044 8.7847L20.9103 10.5912C20.916 12.3537 20.9151 12.3987 20.8715 12.4381C20.7923 12.5099 20.6585 12.5412 20.4268 12.5422L20.2024 12.5432L20.2025 10.9722L20.2025 9.40122L20.2681 9.35726C20.4094 9.26259 20.5707 8.94698 20.5707 8.76497V8.67016L20.6769 8.68213C20.7353 8.68871 20.8104 8.7145 20.8437 8.7394ZM2.92948 8.93365C2.98039 9.10182 3.1004 9.29308 3.19461 9.35622L3.26177 9.40122L3.26184 11.0298L3.26191 12.6583L2.30095 12.6573C1.29652 12.6562 1.22671 12.6501 1.11982 12.5534C1.07652 12.5142 1.0753 12.4633 1.0753 10.7133C1.0753 9.02043 1.07772 8.91128 1.11607 8.87659C1.1998 8.80079 1.27592 8.79414 2.07866 8.79269L2.88634 8.79124L2.92948 8.93365ZM5.58662 9.3861C5.58662 9.57939 5.74756 9.90694 5.88916 10.0018L5.95476 10.0457L5.95483 11.6052L5.95489 13.1647L4.99394 13.1637C3.9895 13.1626 3.91969 13.1565 3.8128 13.0598C3.7695 13.0206 3.76829 12.9697 3.76829 11.2197C3.76829 9.52683 3.7707 9.41768 3.80905 9.38299C3.89283 9.30715 3.96888 9.30054 4.77528 9.29909L5.58662 9.29764V9.3861ZM19.6195 9.35767L19.6845 9.4062L19.6904 11.2127C19.6961 12.9752 19.6952 13.0202 19.6516 13.0596C19.5374 13.163 19.5437 13.1627 17.3943 13.1627C15.2453 13.1627 15.2512 13.163 15.1371 13.0598C15.0938 13.0206 15.0926 12.9697 15.0926 11.2197C15.0926 9.52683 15.095 9.41768 15.1334 9.38299C15.1558 9.36269 15.1998 9.33578 15.2312 9.32314C15.268 9.30834 16.046 9.30178 17.4214 9.30466C19.5516 9.30915 19.5546 9.30922 19.6195 9.35767ZM10.9882 10.0022L11.0531 10.0507L11.059 11.8572C11.0648 13.6197 11.0639 13.6647 11.0203 13.7042C10.9061 13.8075 10.9124 13.8072 8.76296 13.8072C6.61394 13.8072 6.61981 13.8075 6.50578 13.7043C6.46249 13.6651 6.46127 13.6142 6.46127 11.8642C6.46127 10.1713 6.46368 10.0622 6.50203 10.0275C6.52443 10.0072 6.56846 9.98029 6.59985 9.96766C6.63663 9.95286 7.41465 9.9463 8.79005 9.94917C10.9202 9.95366 10.9233 9.95373 10.9882 10.0022Z" fill="#E8E8E8"/>
</svg>
