<svg width="12" height="12" viewBox="0 0 12 12" fill="none" xmlns="http://www.w3.org/2000/svg">
<path fill-rule="evenodd" clip-rule="evenodd" d="M5.02295 0C4.42402 0 3.92442 0.405415 3.87212 0.933866C3.76277 2.03875 3.7351 3.14855 3.78918 4.25618C3.72389 4.26005 3.65861 4.2641 3.59334 4.26831L2.44018 4.34276C1.70311 4.39035 1.29108 5.11828 1.689 5.66986C2.53765 6.84621 3.63117 7.86887 4.91125 8.68332L5.37324 8.97727C5.74781 9.21558 6.25232 9.21559 6.62688 8.97727L7.08888 8.68332C8.36896 7.86887 9.46247 6.84621 10.3111 5.66986C10.709 5.11828 10.297 4.39035 9.55995 4.34276L8.40678 4.26831C8.34151 4.2641 8.27623 4.26005 8.21094 4.25618C8.26503 3.14855 8.23735 2.03874 8.128 0.933861C8.0757 0.405414 7.5761 0 6.97718 0H5.02295ZM4.97928 4.70724C4.89124 3.48172 4.90769 2.252 5.02849 1.02857H6.97163C7.09244 2.252 7.10888 3.48172 7.02084 4.70724C7.01097 4.84464 7.06371 4.9798 7.16725 5.08248C7.2708 5.18516 7.41649 5.24679 7.57174 5.25356C7.82207 5.26448 8.0723 5.27802 8.32235 5.29416L9.15984 5.34823C8.41697 6.31735 7.48679 7.1637 6.41136 7.84795L6.00006 8.10963L5.58877 7.84795C4.51333 7.1637 3.58315 6.31735 2.84028 5.34823L3.67777 5.29416C3.92783 5.27802 4.17805 5.26448 4.42838 5.25356C4.58363 5.24679 4.72933 5.18516 4.83287 5.08248C4.93641 4.9798 4.98915 4.84464 4.97928 4.70724Z" fill="#E8E8E8"/>
<path d="M1.16129 9.42857C1.16129 9.14454 0.901327 8.91429 0.580645 8.91429C0.259964 8.91429 0 9.14454 0 9.42857V10.8C0 11.4627 0.606582 12 1.35484 12H10.6452C11.3934 12 12 11.4627 12 10.8V9.42857C12 9.14454 11.74 8.91429 11.4194 8.91429C11.0987 8.91429 10.8387 9.14454 10.8387 9.42857V10.8C10.8387 10.8947 10.7521 10.9714 10.6452 10.9714H1.35484C1.24795 10.9714 1.16129 10.8947 1.16129 10.8V9.42857Z" fill="#E8E8E8"/>
</svg>
