<svg width="19" height="18" viewBox="0 0 19 18" fill="none" xmlns="http://www.w3.org/2000/svg">
<path fill-rule="evenodd" clip-rule="evenodd" d="M7.87987 0.871699C8.55429 -0.290568 10.2327 -0.290565 10.9071 0.8717L12.9725 4.43106C13.1629 4.75914 13.4919 4.98304 13.867 5.03968L17.2966 5.55769C18.7916 5.78349 19.316 7.67106 18.1517 8.63566L15.6528 10.706C15.3021 10.9966 15.1372 11.4549 15.2224 11.9024L15.9224 15.5783C16.1966 17.0183 14.6849 18.1371 13.3879 17.4542L9.97589 15.6576C9.61136 15.4656 9.17566 15.4656 8.81113 15.6576L5.3991 17.4541C4.10208 18.1371 2.59046 17.0183 2.86465 15.5783L3.56464 11.9024C3.64984 11.4549 3.48492 10.9966 3.13418 10.706L0.635274 8.63566C-0.52901 7.67106 -0.00460696 5.78349 1.49039 5.55769L4.92003 5.03968C5.2951 4.98304 5.62415 4.75914 5.81452 4.43106L7.87987 0.871699ZM9.60974 1.62453C9.5134 1.45849 9.27362 1.45849 9.17727 1.62453L7.11192 5.18389C6.6931 5.90567 5.96919 6.39823 5.14405 6.52286L1.7144 7.04087C1.50083 7.07313 1.42592 7.34278 1.59224 7.48058L4.09115 9.55089C4.86278 10.1902 5.2256 11.1986 5.03816 12.183L4.33818 15.8589C4.29901 16.0646 4.51495 16.2245 4.70024 16.1269L8.11227 14.3303C8.91424 13.908 9.87278 13.908 10.6747 14.3303L14.0868 16.1269C14.2721 16.2245 14.488 16.0646 14.4488 15.8589L13.7489 12.183C13.5614 11.1986 13.9242 10.1902 14.6959 9.55089L17.1948 7.48058C17.3611 7.34278 17.2862 7.07312 17.0726 7.04087L13.643 6.52286C12.8178 6.39823 12.0939 5.90567 11.6751 5.18389L9.60974 1.62453Z" fill="#E8E8E8"/>
</svg>
