<svg width="18" height="18" viewBox="0 0 18 18" fill="none" xmlns="http://www.w3.org/2000/svg">
<path d="M9.00002 7.67492C9.43982 7.67492 9.79636 8.03088 9.79636 8.46997V13.7703C9.79636 14.2094 9.43982 14.5653 9.00002 14.5653C8.56021 14.5653 8.20368 14.2094 8.20368 13.7703V8.46997C8.20368 8.03088 8.56021 7.67492 9.00002 7.67492Z" fill="#E8E8E8"/>
<path d="M9.00002 5.81981C9.58642 5.81981 10.0618 5.3452 10.0618 4.75975C10.0618 4.17429 9.58642 3.69968 9.00002 3.69968C8.41361 3.69968 7.93823 4.17429 7.93823 4.75975C7.93823 5.3452 8.41361 5.81981 9.00002 5.81981Z" fill="#E8E8E8"/>
<path fill-rule="evenodd" clip-rule="evenodd" d="M4.0274 0.274355C7.30572 -0.0914515 10.6943 -0.0914515 13.9726 0.274355C15.9118 0.49074 17.4778 2.01579 17.706 3.96309C18.098 7.30963 18.098 10.6904 17.706 14.0369C17.4778 15.9842 15.9118 17.5093 13.9726 17.7256C10.6943 18.0915 7.30572 18.0915 4.0274 17.7256C2.08818 17.5093 0.522156 15.9842 0.294032 14.0369C-0.0980108 10.6904 -0.0980107 7.30963 0.294032 3.96309C0.522156 2.01579 2.08818 0.49074 4.0274 0.274355ZM13.7957 1.85461C10.635 1.50192 7.36505 1.50192 4.20431 1.85461C2.98917 1.9902 2.01652 2.9477 1.87593 4.14781C1.49826 7.37162 1.49826 10.6284 1.87593 13.8522C2.01652 15.0523 2.98917 16.0098 4.2043 16.1454C7.36505 16.4981 10.635 16.4981 13.7957 16.1454C15.0108 16.0098 15.9835 15.0523 16.1241 13.8522C16.5017 10.6284 16.5017 7.37162 16.1241 4.14781C15.9835 2.9477 15.0108 1.9902 13.7957 1.85461Z" fill="#E8E8E8"/>
</svg>
