<svg width="19" height="19" viewBox="0 0 19 19" fill="none" xmlns="http://www.w3.org/2000/svg">
<path fill-rule="evenodd" clip-rule="evenodd" d="M10.3991 0.265536C9.728 -0.0847339 8.81861 -0.0901386 8.14213 0.259229C5.54917 1.59837 3.1973 3.1338 1.13632 4.83681C0.817615 5.10016 0.591435 5.48285 0.595294 5.9333C0.599137 6.38189 0.82992 6.75946 1.14669 7.01847C3.19054 8.68965 5.54435 10.2265 8.08984 11.555C8.76096 11.9053 9.67036 11.9107 10.3468 11.5613C12.9398 10.2222 15.2917 8.68674 17.3526 6.98373C17.6713 6.72038 17.8975 6.33769 17.8937 5.88725C17.8898 5.43865 17.659 5.06108 17.3423 4.80207C15.2984 3.13089 12.9446 1.59407 10.3991 0.265536ZM8.83044 1.59198C9.0701 1.46821 9.46379 1.46938 9.70508 1.59532C12.1344 2.86323 14.3728 4.32193 16.312 5.8975C14.3612 7.49842 12.1295 8.95241 9.65853 10.2286C9.41886 10.3523 9.02517 10.3512 8.78388 10.2252C6.35454 8.95731 4.11614 7.49861 2.17691 5.92304C4.12771 4.32212 6.35946 2.86813 8.83044 1.59198Z" fill="#E8E8E8"/>
<path d="M18.4415 9.6033C18.6609 9.95466 18.5539 10.4173 18.2025 10.6367L12.0953 14.4496C11.2665 14.967 10.2383 15.2062 9.24439 15.2062C8.25046 15.2063 7.22221 14.9672 6.39335 14.4499L0.353015 10.6802C0.00162017 10.4609 -0.105461 9.99823 0.113844 9.64683C0.333148 9.29544 0.795792 9.18836 1.14719 9.40766L7.18752 13.1774C7.73167 13.517 8.47086 13.7063 9.2443 13.7062C10.0178 13.7062 10.7569 13.5168 11.3009 13.1772L17.4081 9.3643C17.7595 9.14494 18.2222 9.25194 18.4415 9.6033Z" fill="#E8E8E8"/>
<path d="M18.4415 13.3579C18.6609 13.7093 18.5539 14.172 18.2026 14.3914L12.9137 17.6942C11.856 18.3547 10.5331 18.6654 9.24435 18.6655C7.95564 18.6656 6.63258 18.355 5.5748 17.6947L0.352939 14.4348C0.00156999 14.2155 -0.105455 13.7528 0.113891 13.4015C0.333238 13.0501 0.795894 12.9431 1.14726 13.1624L6.36913 16.4222C7.14214 16.9048 8.17607 17.1656 9.24426 17.1655C10.3125 17.1655 11.3463 16.9046 12.1191 16.4219L17.4081 13.1191C17.7594 12.8997 18.2221 13.0066 18.4415 13.3579Z" fill="#E8E8E8"/>
</svg>
