<svg width="22" height="22" viewBox="0 0 22 22" fill="none" xmlns="http://www.w3.org/2000/svg">
<path d="M10.75 0C11.1642 0 11.5 0.335786 11.5 0.75V1.75C11.5 2.16421 11.1642 2.5 10.75 2.5C10.3358 2.5 10 2.16421 10 1.75V0.75C10 0.335786 10.3358 0 10.75 0Z" fill="#525252"/>
<path fill-rule="evenodd" clip-rule="evenodd" d="M5 10.75C5 7.57436 7.57436 5 10.75 5C13.9256 5 16.5 7.57436 16.5 10.75C16.5 13.9256 13.9256 16.5 10.75 16.5C7.57436 16.5 5 13.9256 5 10.75ZM10.75 6.5C8.40279 6.5 6.5 8.40279 6.5 10.75C6.5 13.0972 8.40279 15 10.75 15C13.0972 15 15 13.0972 15 10.75C15 8.40279 13.0972 6.5 10.75 6.5Z" fill="#525252"/>
<path d="M4.20928 3.14862C3.91638 2.85573 3.44151 2.85573 3.14862 3.14862C2.85572 3.44152 2.85572 3.91639 3.14862 4.20929L3.85572 4.91639C4.14862 5.20929 4.62349 5.20929 4.91638 4.91639C5.20928 4.6235 5.20928 4.14862 4.91638 3.85573L4.20928 3.14862Z" fill="#525252"/>
<path d="M21.5 10.75C21.5 11.1642 21.1642 11.5 20.75 11.5H19.75C19.3358 11.5 19 11.1642 19 10.75C19 10.3358 19.3358 10 19.75 10H20.75C21.1642 10 21.5 10.3358 21.5 10.75Z" fill="#525252"/>
<path d="M18.3514 4.20928C18.6443 3.91638 18.6443 3.44151 18.3514 3.14862C18.0585 2.85572 17.5836 2.85572 17.2907 3.14862L16.5836 3.85572C16.2907 4.14862 16.2907 4.62349 16.5836 4.91638C16.8765 5.20928 17.3514 5.20928 17.6443 4.91638L18.3514 4.20928Z" fill="#525252"/>
<path d="M10.75 19C11.1642 19 11.5 19.3358 11.5 19.75V20.75C11.5 21.1642 11.1642 21.5 10.75 21.5C10.3358 21.5 10 21.1642 10 20.75V19.75C10 19.3358 10.3358 19 10.75 19Z" fill="#525252"/>
<path d="M17.6443 16.5836C17.3514 16.2907 16.8766 16.2907 16.5837 16.5836C16.2908 16.8765 16.2908 17.3514 16.5837 17.6443L17.2908 18.3514C17.5837 18.6443 18.0585 18.6443 18.3514 18.3514C18.6443 18.0585 18.6443 17.5836 18.3514 17.2907L17.6443 16.5836Z" fill="#525252"/>
<path d="M2.5 10.75C2.5 11.1642 2.16421 11.5 1.75 11.5H0.75C0.335786 11.5 0 11.1642 0 10.75C0 10.3358 0.335786 10 0.75 10H1.75C2.16421 10 2.5 10.3358 2.5 10.75Z" fill="#525252"/>
<path d="M4.91632 17.6443C5.20921 17.3514 5.20921 16.8765 4.91632 16.5836C4.62342 16.2907 4.14855 16.2907 3.85566 16.5836L3.14855 17.2907C2.85566 17.5836 2.85566 18.0585 3.14855 18.3514C3.44144 18.6443 3.91632 18.6443 4.20921 18.3514L4.91632 17.6443Z" fill="#525252"/>
</svg>
