<svg width="13" height="13" viewBox="0 0 13 13" fill="none" xmlns="http://www.w3.org/2000/svg">
<path fill-rule="evenodd" clip-rule="evenodd" d="M9.76969 0.370279C9.13781 -0.261594 8.06757 -0.0554819 7.71556 0.765869L6.56608 3.44801C5.48409 3.23583 4.31837 3.5484 3.47901 4.38776L2.24471 5.62206C2.03331 5.83346 2.03331 6.17621 2.24471 6.38762L4.04576 8.18867L0.158552 12.0759C-0.0528504 12.2873 -0.0528506 12.63 0.158552 12.8414C0.369954 13.0529 0.712705 13.0529 0.924107 12.8414L4.81131 8.95423L6.61242 10.7553C6.71394 10.8569 6.85162 10.9139 6.99519 10.9139C7.13876 10.9139 7.27645 10.8569 7.37797 10.7553L8.61227 9.52104C9.45163 8.68168 9.7642 7.51594 9.55201 6.43394L12.2341 5.28446C13.0555 4.93245 13.2616 3.8622 12.6297 3.23033L9.76969 0.370279ZM8.71068 1.19235C8.76097 1.07501 8.91386 1.04557 9.00413 1.13584L11.8642 3.99588C11.9544 4.08615 11.925 4.23904 11.8077 4.28933L8.69297 5.6242C8.42998 5.73691 8.30012 6.03481 8.39654 6.30419C8.69319 7.133 8.50888 8.09331 7.84671 8.75548L6.99519 9.607L3.39305 6.00484L4.24457 5.15331C4.90673 4.49115 5.86703 4.30683 6.69583 4.60348C6.96522 4.6999 7.26311 4.57004 7.37582 4.30705L8.71068 1.19235Z" fill="#E8E8E8"/>
</svg>
