<svg width="17" height="18" viewBox="0 0 17 18" fill="none" xmlns="http://www.w3.org/2000/svg">
<path fill-rule="evenodd" clip-rule="evenodd" d="M3.74015 4.50555C3.74015 2.0172 5.70979 0 8.13947 0C10.5691 0 12.5388 2.0172 12.5388 4.50555C12.5388 6.9939 10.5691 9.0111 8.13947 9.0111C5.70979 9.0111 3.74015 6.9939 3.74015 4.50555ZM8.13947 1.59019C6.56733 1.59019 5.29285 2.89544 5.29285 4.50555C5.29285 6.11566 6.56733 7.42091 8.13947 7.42091C9.71161 7.42091 10.9861 6.11566 10.9861 4.50555C10.9861 2.89544 9.71161 1.59019 8.13947 1.59019Z" fill="#EEEEEE"/>
<path fill-rule="evenodd" clip-rule="evenodd" d="M3.99894 12.1915C2.71264 12.1915 1.66989 13.2594 1.66989 14.5768V15.8365C1.66989 15.8557 1.68346 15.8721 1.70195 15.8751C5.9654 16.588 10.3135 16.588 14.577 15.8751C14.5955 15.8721 14.6091 15.8557 14.6091 15.8365V14.5768C14.6091 13.2594 13.5663 12.1915 12.28 12.1915H11.9272C11.8999 12.1915 11.8728 12.1959 11.8468 12.2046L10.9509 12.5042C9.12408 13.1151 7.15486 13.1151 5.32803 12.5042L4.43211 12.2046C4.40617 12.1959 4.37906 12.1915 4.35178 12.1915H3.99894ZM0.117188 14.5768C0.117188 12.3812 1.85511 10.6013 3.99894 10.6013H4.35178C4.54276 10.6013 4.73253 10.6322 4.91407 10.6929L5.80999 10.9925C7.32365 11.4987 8.95529 11.4987 10.4689 10.9925L11.3649 10.6929C11.5464 10.6322 11.7362 10.6013 11.9272 10.6013H12.28C14.4238 10.6013 16.1618 12.3812 16.1618 14.5768V15.8365C16.1618 16.635 15.5967 17.3159 14.8272 17.4446C10.398 18.1851 5.88091 18.1851 1.45176 17.4446C0.68225 17.3159 0.117188 16.635 0.117188 15.8365V14.5768Z" fill="#EEEEEE"/>
</svg>
