<svg width="17" height="16" viewBox="0 0 17 16" fill="none" xmlns="http://www.w3.org/2000/svg">
<path d="M5.56095 4.67343C5.83816 4.39744 6.2876 4.39744 6.5648 4.67343L8.9022 7.00056L11.2396 4.67344C11.5168 4.39745 11.9662 4.39745 12.2434 4.67344C12.5206 4.94943 12.5206 5.39689 12.2434 5.67288L9.90605 7.99999L12.2434 10.3271C12.5206 10.6031 12.5206 11.0506 12.2434 11.3265C11.9662 11.6025 11.5168 11.6025 11.2396 11.3265L8.9022 8.99943L6.56481 11.3265C6.2876 11.6025 5.83817 11.6025 5.56096 11.3265C5.28376 11.0506 5.28376 10.6031 5.56096 10.3271L7.89835 7.99999L5.56095 5.67287C5.28375 5.39688 5.28375 4.94942 5.56095 4.67343Z" fill="#D9D9D9"/>
<path fill-rule="evenodd" clip-rule="evenodd" d="M4.46977 0.243871C7.39195 -0.0812903 10.4124 -0.0812903 13.3346 0.243871C15.0631 0.436213 16.459 1.79182 16.6624 3.52275C17.0118 6.49745 17.0118 9.50255 16.6624 12.4773C16.459 14.2082 15.0631 15.5638 13.3346 15.7561C10.4124 16.0813 7.39195 16.0813 4.46977 15.7561C2.74121 15.5638 1.34531 14.2082 1.14197 12.4773C0.792519 9.50255 0.792519 6.49745 1.14197 3.52275C1.34531 1.79182 2.74121 0.436213 4.46977 0.243871ZM13.1769 1.64854C10.3595 1.33504 7.44484 1.33504 4.62746 1.64854C3.54432 1.76907 2.67734 2.62018 2.55202 3.68694C2.21538 6.55255 2.21538 9.44745 2.55202 12.3131C2.67734 13.3798 3.54432 14.2309 4.62746 14.3515C7.44484 14.665 10.3595 14.665 13.1769 14.3515C14.26 14.2309 15.127 13.3798 15.2523 12.3131C15.589 9.44745 15.589 6.55255 15.2523 3.68694C15.127 2.62018 14.26 1.76907 13.1769 1.64854Z" fill="#D9D9D9"/>
</svg>
