<svg width="16" height="19" viewBox="0 0 16 19" fill="none" xmlns="http://www.w3.org/2000/svg">
<path fill-rule="evenodd" clip-rule="evenodd" d="M0.00522861 1.47075C-0.0939986 0.279313 1.24088 -0.379424 2.1572 0.232702L2.4536 0.430712C6.97321 3.44995 11.2031 6.85728 15.0918 10.6115C16.0606 11.5468 15.2063 13.0227 13.9975 12.8933L8.73115 12.3293C8.19496 12.2718 7.70085 12.5601 7.49735 13.0091L5.36873 17.7061C4.85463 18.8405 3.16125 18.7351 2.82431 17.5111C1.40954 12.372 0.475704 7.11981 0.0341692 1.81824L0.00522861 1.47075ZM1.52222 1.61243L1.52899 1.69375C1.95177 6.77014 2.83398 11.8007 4.16536 16.7275L6.1311 12.3899C6.61155 11.3298 7.73496 10.714 8.89087 10.8378L13.6979 11.3526C9.97101 7.79413 5.9299 4.5569 1.62037 1.678L1.52222 1.61243Z" fill="#E8E8E8"/>
</svg>
