<svg width="22" height="22" viewBox="0 0 22 22" fill="none" xmlns="http://www.w3.org/2000/svg">
<path fill-rule="evenodd" clip-rule="evenodd" d="M10.5305 1.60973L8.31773 3.89923C8.08221 4.14292 7.75783 4.28053 7.41892 4.28053H4.28053V7.41892C4.28053 7.75783 4.14292 8.08221 3.89923 8.31773L1.60973 10.5305L3.89923 12.7433C4.14292 12.9789 4.28053 13.3032 4.28053 13.6421V16.7805H7.41892C7.75783 16.7805 8.08221 16.9181 8.31773 17.1618L10.5305 19.4513L12.7433 17.1618C12.9789 16.9181 13.3032 16.7805 13.6421 16.7805H16.7805V13.6421C16.7805 13.3032 16.9181 12.9789 17.1618 12.7433L19.4513 10.5305L17.1618 8.31774C16.9181 8.08221 16.7805 7.75783 16.7805 7.41893V4.28053H13.6421C13.3032 4.28053 12.9789 4.14292 12.7433 3.89923L10.5305 1.60973ZM9.63172 0.381301C10.1231 -0.127101 10.938 -0.1271 11.4293 0.381301L13.7482 2.78053H17.0305C17.7209 2.78053 18.2805 3.34018 18.2805 4.03053V7.31287L20.6798 9.63172C21.1882 10.1231 21.1882 10.938 20.6798 11.4293L18.2805 13.7482V17.0305C18.2805 17.7209 17.7209 18.2805 17.0305 18.2805H13.7482L11.4293 20.6798C10.938 21.1882 10.1231 21.1882 9.63172 20.6798L7.31286 18.2805H4.03053C3.34018 18.2805 2.78053 17.7209 2.78053 17.0305V13.7482L0.3813 11.4293C-0.1271 10.938 -0.127101 10.1231 0.3813 9.63172L2.78053 7.31287V4.03053C2.78053 3.34018 3.34018 2.78053 4.03053 2.78053H7.31287L9.63172 0.381301Z" fill="#E8E8E8"/>
<path fill-rule="evenodd" clip-rule="evenodd" d="M5.78053 10.5305C5.78053 7.90718 7.90718 5.78053 10.5305 5.78053C13.1539 5.78053 15.2805 7.90718 15.2805 10.5305C15.2805 13.1539 13.1539 15.2805 10.5305 15.2805C7.90718 15.2805 5.78053 13.1539 5.78053 10.5305ZM10.5305 7.28053C8.73561 7.28053 7.28053 8.73561 7.28053 10.5305C7.28053 12.3255 8.73561 13.7805 10.5305 13.7805C12.3255 13.7805 13.7805 12.3255 13.7805 10.5305C13.7805 8.73561 12.3255 7.28053 10.5305 7.28053Z" fill="#E8E8E8"/>
</svg>
