<svg width="14" height="15" viewBox="0 0 14 15" fill="none" xmlns="http://www.w3.org/2000/svg">
<path fill-rule="evenodd" clip-rule="evenodd" d="M8.8 2.5C8.8 1.11929 9.96406 0 11.4 0C12.8359 0 14 1.11929 14 2.5C14 3.88071 12.8359 5 11.4 5C10.6323 5 9.94231 4.68007 9.46637 4.17131L7.29253 5.31144L4.86012 6.64793C5.07642 7.01262 5.2 7.43474 5.2 7.88462C5.2 8.11258 5.16827 8.33341 5.10882 8.54326L9.46637 10.8287C9.94231 10.3199 10.6323 10 11.4 10C12.8359 10 14 11.1193 14 12.5C14 13.8807 12.8359 15 11.4 15C9.96406 15 8.8 13.8807 8.8 12.5C8.8 12.272 8.83173 12.0512 8.89118 11.8413L4.53363 9.55592C4.05769 10.0647 3.3677 10.3846 2.6 10.3846C1.16406 10.3846 0 9.26533 0 7.88462C0 6.5039 1.16406 5.38462 2.6 5.38462C3.12054 5.38462 3.60536 5.5317 4.01194 5.78502L6.70748 4.30395L8.89118 3.15865C8.83173 2.9488 8.8 2.72796 8.8 2.5ZM11.4 1.15385C10.6268 1.15385 10 1.75654 10 2.5C10 3.24346 10.6268 3.84615 11.4 3.84615C12.1732 3.84615 12.8 3.24346 12.8 2.5C12.8 1.75654 12.1732 1.15385 11.4 1.15385ZM2.6 6.53846C1.8268 6.53846 1.2 7.14116 1.2 7.88462C1.2 8.62808 1.8268 9.23077 2.6 9.23077C3.3732 9.23077 4 8.62808 4 7.88462C4 7.14116 3.3732 6.53846 2.6 6.53846ZM10 12.5C10 11.7565 10.6268 11.1538 11.4 11.1538C12.1732 11.1538 12.8 11.7565 12.8 12.5C12.8 13.2435 12.1732 13.8462 11.4 13.8462C10.6268 13.8462 10 13.2435 10 12.5Z" fill="#E8E8E8"/>
</svg>
