<svg width="14" height="14" viewBox="0 0 14 14" fill="none" xmlns="http://www.w3.org/2000/svg">
<path d="M7 8C6.66863 8 6.4 7.73137 6.4 7.4L6.4 3.4C6.4 3.06863 6.66863 2.8 7 2.8C7.33137 2.8 7.6 3.06863 7.6 3.4L7.6 7.4C7.6 7.73137 7.33137 8 7 8Z" fill="#E8E8E8"/>
<path d="M7 9.4C6.55817 9.4 6.2 9.75817 6.2 10.2C6.2 10.6418 6.55817 11 7 11C7.44183 11 7.8 10.6418 7.8 10.2C7.8 9.75817 7.44183 9.4 7 9.4Z" fill="#E8E8E8"/>
<path fill-rule="evenodd" clip-rule="evenodd" d="M14 7C14 10.866 10.866 14 7 14C3.13401 14 6.53673e-08 10.866 4.03343e-07 7C7.41319e-07 3.13401 3.13401 -1.15855e-06 7 -8.20576e-07C10.866 -4.826e-07 14 3.13401 14 7ZM7 12.8C10.2033 12.8 12.8 10.2033 12.8 7C12.8 3.79675 10.2033 1.2 7 1.2C3.79675 1.2 1.2 3.79675 1.2 7C1.2 10.2033 3.79675 12.8 7 12.8Z" fill="#E8E8E8"/>
</svg>
