<svg width="50" height="50" viewBox="0 0 50 50" fill="none" xmlns="http://www.w3.org/2000/svg">
<g filter="url(#filter0_d_435_859)">
<circle cx="25" cy="25" r="15" fill="#D9B844" fill-opacity="0.5"/>
<circle cx="25.0004" cy="24.9999" r="10.1351" fill="white"/>
<path fill-rule="evenodd" clip-rule="evenodd" d="M25.5554 14.8795C25.999 14.9032 26.5178 14.9682 26.9631 15.0558C30.9854 15.8472 34.1518 19.0138 34.9431 23.0363C35.5965 26.3577 34.5569 29.774 32.1649 32.1661C31.137 33.194 29.917 33.9792 28.5398 34.4992C27.9094 34.7372 27.1452 34.9323 26.4634 35.0295C24.5912 35.2964 22.7458 35.0561 21.0085 34.3193C20.7322 34.2021 20.1487 33.9075 19.8823 33.7507C17.3699 32.2719 15.6141 29.8031 15.0556 26.9641C14.517 24.2262 15.1285 21.3849 16.7431 19.1225C18.7673 16.2862 22.076 14.6931 25.5554 14.8795ZM20.0209 18.5806C20.0115 18.5999 19.9898 18.7076 19.9725 18.8199C19.9553 18.9322 19.9369 19.0272 19.9316 19.0311C19.9263 19.035 19.914 19.0983 19.9043 19.1719C19.8759 19.3869 19.8195 19.7115 19.8052 19.742C19.7979 19.7575 19.7852 19.8209 19.7768 19.8828C19.751 20.0747 19.6876 20.4315 19.6781 20.4389C19.6731 20.4428 19.6609 20.5029 19.6509 20.5726C19.6262 20.7451 19.5677 21.045 19.5521 21.0794C19.545 21.0949 19.5292 21.1646 19.5169 21.2343C19.5046 21.304 19.4792 21.4244 19.4605 21.5018C19.4418 21.5792 19.4016 21.7482 19.3711 21.8773C19.3406 22.0064 19.3081 22.1331 19.2988 22.1589C19.2896 22.1846 19.2572 22.3054 19.2269 22.4273C19.1966 22.5491 19.1657 22.66 19.1582 22.6736C19.1507 22.6873 19.1247 22.7776 19.1004 22.8744C19.0761 22.9712 19.0475 23.0694 19.0368 23.0926C19.0261 23.1158 18.9947 23.2138 18.9671 23.3103C18.9395 23.4068 18.9122 23.4892 18.9064 23.4933C18.9007 23.4975 18.8783 23.5611 18.8568 23.6346C18.8353 23.7082 18.8058 23.7937 18.7912 23.8247C18.7766 23.8556 18.7413 23.9507 18.7128 24.0358C18.6843 24.121 18.6554 24.1928 18.6487 24.1954C18.642 24.198 18.6364 24.2067 18.6364 24.2149C18.6364 24.2424 18.5344 24.5144 18.5208 24.5231C18.5134 24.5278 18.5083 24.5342 18.5095 24.5372C18.5108 24.5402 18.505 24.5605 18.4967 24.5823C18.4884 24.6041 18.4816 24.6243 18.4816 24.6273C18.4816 24.6323 18.3726 24.8739 18.2849 25.0635C18.2242 25.1946 18.1307 25.4054 18.085 25.514C18.0623 25.5682 18.0281 25.6391 18.0092 25.6714C17.9667 25.7441 17.965 25.8035 18.0045 25.8392C18.0281 25.8605 18.0521 25.8652 18.1207 25.8624C18.2366 25.8575 18.8778 25.8081 19.1925 25.7798C19.5506 25.7476 20.8034 25.7473 21.1563 25.7794C21.2918 25.7917 21.5198 25.8115 21.6631 25.8233C22.0063 25.8516 22.5496 25.9136 22.5851 25.9285C22.6006 25.935 22.6956 25.9504 22.7963 25.9626C23.0004 25.9874 23.2634 26.0357 23.2966 26.0545C23.3303 26.0735 23.6091 26.104 23.6516 26.0934C23.7207 26.076 23.7235 26.0508 23.6911 25.7414C23.6747 25.5854 23.6552 25.4324 23.6476 25.4014C23.64 25.3704 23.6243 25.2057 23.6128 25.0354C23.6012 24.865 23.5827 24.6496 23.5716 24.5567C23.5605 24.4638 23.5477 24.3276 23.543 24.2541C23.5384 24.1805 23.5283 24.0728 23.5205 24.0147C23.483 23.7345 23.4606 23.0125 23.4523 21.8209C23.4441 20.6253 23.4431 20.5909 23.4165 20.5715C23.4015 20.5605 23.3695 20.5515 23.3454 20.5515C23.3213 20.5515 23.2956 20.5461 23.2883 20.5395C23.2809 20.5328 23.2179 20.5102 23.1482 20.4892C23.0785 20.4681 22.9962 20.439 22.9652 20.4244C22.9342 20.4098 22.8424 20.3748 22.7611 20.3466C22.6798 20.3184 22.6101 20.2905 22.6062 20.2847C22.6024 20.2789 22.5612 20.2601 22.5147 20.2429C22.4683 20.2258 22.402 20.196 22.3674 20.1768C22.3328 20.1576 22.2539 20.1199 22.1922 20.0931C22.1304 20.0664 22.0763 20.0398 22.0721 20.034C22.0678 20.0283 22.0104 19.9963 21.9446 19.9629C21.7303 19.8541 21.5741 19.7558 21.3463 19.5865C21.2999 19.5519 21.2255 19.4982 21.1811 19.467C21.1366 19.4359 21.0891 19.3989 21.0755 19.3849C21.0619 19.3709 21.0206 19.3391 20.9838 19.3143C20.9471 19.2894 20.9169 19.2646 20.9169 19.2592C20.9169 19.2537 20.8883 19.2312 20.8534 19.2092C20.8185 19.1871 20.782 19.1583 20.7725 19.1452C20.7629 19.1322 20.7329 19.1064 20.7058 19.0879C20.633 19.0384 20.5664 18.9762 20.3399 18.7463C20.1489 18.5525 20.1325 18.5392 20.0868 18.5422C20.0505 18.5446 20.0337 18.5544 20.0209 18.5806ZM24.9199 19.6007C24.8775 19.6304 24.8687 19.6979 24.8952 19.7899C24.9077 19.8332 24.9235 19.8795 24.9302 19.8927C24.9432 19.9181 25.0179 20.3084 25.0348 20.4389C25.0403 20.4815 25.0499 20.5259 25.056 20.5376C25.0965 20.6149 25.1855 21.6985 25.1842 22.1001C25.183 22.5111 25.1247 23.25 25.0749 23.4868C25.0635 23.541 25.039 23.6625 25.0204 23.7568C24.9817 23.9527 24.9473 24.0914 24.9289 24.1252C24.9219 24.138 24.8936 24.2337 24.8659 24.3379C24.8383 24.4421 24.8107 24.5308 24.8046 24.535C24.7985 24.5392 24.7726 24.625 24.7471 24.7257C24.7216 24.8263 24.6923 24.9277 24.682 24.9509C24.6718 24.9741 24.6435 25.066 24.6192 25.155C24.5949 25.2441 24.5663 25.336 24.5557 25.3592C24.5451 25.3824 24.5294 25.4299 24.5208 25.4648C24.4991 25.5525 24.4508 25.7027 24.4279 25.7534C24.4175 25.7766 24.3873 25.8621 24.3609 25.9434C24.3345 26.0247 24.3034 26.1134 24.2917 26.1405C24.2666 26.199 24.2783 26.2412 24.329 26.2744C24.3621 26.2961 24.3766 26.2943 24.6007 26.2406C24.7309 26.2093 24.9001 26.1674 24.9766 26.1475C25.1061 26.1137 25.2669 26.0814 25.5413 26.0341C25.7935 25.9906 26.3609 25.9954 26.6886 26.0437C26.739 26.0511 26.8371 26.0632 26.9068 26.0704C26.9765 26.0777 27.0984 26.0941 27.1777 26.1068C27.3133 26.1285 27.324 26.1284 27.359 26.1055C27.3953 26.0817 27.3959 26.0789 27.3867 25.9736C27.3816 25.9144 27.3716 25.847 27.3645 25.8238C27.3437 25.7562 27.2959 25.2269 27.273 24.8122C27.2614 24.602 27.2453 24.3445 27.2373 24.24C27.2292 24.1354 27.2131 23.7997 27.2015 23.4938C27.1526 22.2057 27.1575 22.2826 27.1218 22.2438C27.1042 22.2247 27.0487 22.1816 26.9983 22.1482C26.8858 22.0733 26.7263 21.9589 26.7168 21.9461C26.7129 21.941 26.6844 21.9182 26.6534 21.8956C26.4821 21.7706 26.0881 21.3561 25.8642 21.0652C25.8105 20.9955 25.7602 20.9283 25.7525 20.916C25.7447 20.9037 25.7194 20.8676 25.6962 20.8358C25.6521 20.7755 25.5538 20.6219 25.4837 20.5038C25.4612 20.4659 25.4284 20.4121 25.4108 20.3841C25.3932 20.3562 25.3714 20.3175 25.3623 20.2981C25.3533 20.2788 25.3375 20.2529 25.3274 20.2406C25.3172 20.2283 25.2894 20.1776 25.2655 20.128C25.2417 20.0783 25.2045 20.0092 25.183 19.9743C25.1484 19.9182 25.1046 19.8157 25.0627 19.6928C25.0249 19.5815 24.9845 19.5555 24.9199 19.6007ZM27.6807 21.1995C27.6557 21.2272 27.656 21.2373 27.6929 21.5479C27.7362 21.9126 27.7422 21.9579 27.7996 22.3535C27.8226 22.5122 27.8484 22.7055 27.8571 22.7829C27.8657 22.8603 27.8783 22.9363 27.8851 22.9518C27.8977 22.9807 27.9755 23.5129 27.9911 23.6769C27.9959 23.7272 28.0055 23.781 28.0123 23.7965C28.0278 23.8315 28.0892 24.2965 28.1109 24.5427C28.1198 24.6433 28.1324 24.7383 28.139 24.7538C28.1719 24.831 28.2088 25.4866 28.194 25.7303C28.1815 25.9359 28.156 26.1361 28.1381 26.1695C28.1313 26.1823 28.1214 26.2342 28.1163 26.285C28.1069 26.3763 28.1072 26.3775 28.1473 26.398C28.1831 26.4162 28.2128 26.4162 28.399 26.3973C28.7268 26.364 29.5525 26.3649 29.7987 26.3989C29.9026 26.4132 29.9976 26.4301 30.0098 26.4364C30.022 26.4427 30.1572 26.4706 30.3102 26.4983C30.4632 26.5261 30.5994 26.5549 30.6129 26.5624C30.6263 26.5699 30.7133 26.5957 30.8062 26.6197C30.8991 26.6437 30.9941 26.6727 31.0174 26.6843C31.1594 26.7549 31.2985 26.7946 31.2988 26.7646C31.2988 26.7556 31.3037 26.7435 31.3095 26.7377C31.329 26.7181 31.3196 26.6546 31.2919 26.6192C31.2767 26.5998 31.2642 26.5787 31.264 26.5721C31.2639 26.5656 31.2416 26.5344 31.2145 26.5027C31.1874 26.4711 31.1652 26.4404 31.1652 26.4345C31.1652 26.4286 31.1296 26.3743 31.0862 26.3138C31.0427 26.2534 31.0019 26.1902 30.9955 26.1736C30.9891 26.1569 30.9781 26.1396 30.9709 26.1352C30.9588 26.1277 30.7239 25.7867 30.6443 25.6609C30.625 25.6304 30.5611 25.5341 30.5023 25.4471C30.4436 25.36 30.3565 25.2286 30.3089 25.1551C30.2612 25.0815 30.2111 25.0055 30.1975 24.9863C30.1839 24.967 30.1502 24.9132 30.1228 24.8666C30.0953 24.8201 30.0525 24.7541 30.0277 24.72C30.003 24.686 29.9827 24.6515 29.9827 24.6435C29.9827 24.6355 29.9706 24.6159 29.9558 24.5999C29.9409 24.5839 29.9082 24.5328 29.883 24.4863C29.8578 24.4399 29.823 24.3829 29.8056 24.3596C29.7881 24.3364 29.7591 24.2911 29.741 24.2588C29.6844 24.1578 29.5871 23.9959 29.5478 23.9373C29.5271 23.9063 29.4918 23.8461 29.4695 23.8036C29.4471 23.761 29.4141 23.7065 29.3961 23.6826C29.3781 23.6586 29.3633 23.6339 29.3633 23.6276C29.3633 23.6213 29.3485 23.5966 29.3305 23.5726C29.3124 23.5486 29.2734 23.4847 29.2437 23.4305C29.2141 23.3763 29.1819 23.3224 29.1721 23.3108C29.1624 23.2992 29.1306 23.2454 29.1016 23.1912C29.0726 23.137 29.0348 23.0736 29.0176 23.0504C29.0005 23.0271 28.9715 22.9804 28.9531 22.9464C28.9348 22.9124 28.9134 22.8744 28.9056 22.8619C28.8978 22.8494 28.8728 22.8075 28.8501 22.7688C28.8274 22.7301 28.7942 22.6788 28.7763 22.6549C28.7585 22.6309 28.7439 22.6065 28.7439 22.6007C28.7439 22.5949 28.7091 22.5367 28.6665 22.4713C28.6239 22.406 28.5891 22.3497 28.5891 22.3463C28.5891 22.3429 28.5621 22.2991 28.5292 22.2491C28.4963 22.199 28.4377 22.1071 28.399 22.0449C28.3603 21.9827 28.2856 21.8699 28.233 21.7942C28.1804 21.7186 28.1154 21.625 28.0885 21.5863C28.0616 21.5475 28.0192 21.489 27.9941 21.4562C27.969 21.4234 27.9105 21.346 27.8641 21.2841C27.7722 21.1618 27.7317 21.1431 27.6807 21.1995ZM17.9043 26.8988C17.8613 26.9347 17.8577 26.943 17.8714 26.9731C17.8799 26.9918 17.9082 27.0173 17.9344 27.0298C18.0239 27.0726 18.0884 27.0978 18.1083 27.0978C18.1686 27.0978 18.3695 27.1767 18.4358 27.2264C18.5248 27.293 18.565 27.3666 18.6079 27.5413C18.6651 27.7744 18.7757 27.9413 18.9625 28.076C19.0182 28.1163 19.264 28.21 19.3137 28.21C19.3221 28.21 19.349 28.2189 19.3734 28.2298C19.3978 28.2406 19.4431 28.2535 19.474 28.2583C19.5748 28.2739 20.0215 28.3385 20.0794 28.3458C20.1103 28.3497 20.1483 28.3583 20.1638 28.3648C20.1793 28.3714 20.2332 28.3803 20.2835 28.3847C20.3688 28.3922 20.4936 28.4072 20.8613 28.4544C20.943 28.4649 21.0222 28.4799 21.0373 28.4877C21.0524 28.4955 21.1059 28.5056 21.1563 28.5102C21.2066 28.5147 21.327 28.5286 21.4237 28.5412C21.5205 28.5537 21.6662 28.5726 21.7475 28.5831C21.8288 28.5936 21.9175 28.6085 21.9446 28.6162C21.9717 28.6239 22.035 28.6343 22.0854 28.6393C22.3433 28.6648 22.886 28.7334 22.923 28.745C22.9462 28.7523 23.0349 28.7654 23.12 28.774C23.2052 28.7826 23.3446 28.7981 23.4297 28.8084C23.5149 28.8186 23.6543 28.8343 23.7394 28.8432C23.8246 28.8521 23.9056 28.8655 23.9195 28.873C23.9334 28.8806 24.0316 28.8958 24.1377 28.907C24.4482 28.9396 24.6745 28.9685 24.7952 28.9909C24.8572 29.0025 25.0441 29.0277 25.2105 29.0469C25.6859 29.102 25.7618 29.1116 25.837 29.1258C25.8757 29.1331 25.9675 29.1458 26.0411 29.1539C26.4166 29.1952 26.6612 29.2244 26.7309 29.2363C26.9755 29.278 27.091 29.2865 27.8641 29.3201C28.1332 29.3318 28.567 29.3153 28.6946 29.2884C28.8206 29.2619 29.097 29.1643 29.1481 29.1282C29.1697 29.113 29.219 29.0845 29.2577 29.0649C29.2964 29.0453 29.3432 29.0162 29.3616 29.0001C29.38 28.984 29.4259 28.951 29.4636 28.9268C29.5014 28.9026 29.5322 28.8782 29.5322 28.8726C29.5322 28.867 29.5592 28.843 29.5921 28.8193C29.625 28.7955 29.6745 28.7549 29.7021 28.7289C29.7298 28.7029 29.7954 28.6468 29.848 28.6042C29.9005 28.5616 29.9561 28.515 29.9715 28.5007C30.0125 28.4626 30.3389 28.2165 30.4388 28.1483C30.551 28.0718 30.6428 28.019 30.6866 28.006C30.7059 28.0003 30.7344 27.9842 30.7499 27.9703C30.781 27.9424 31.1275 27.8033 31.2496 27.7697C31.2922 27.758 31.3543 27.7445 31.3875 27.7396C31.4208 27.7348 31.4588 27.7251 31.472 27.7181C31.4852 27.7111 31.5689 27.6987 31.6579 27.6907C32.0544 27.6549 32.5383 27.6004 32.5448 27.5909C32.5486 27.5852 32.5803 27.5769 32.6151 27.5725C32.8388 27.544 33.1599 27.5072 33.2557 27.4991C33.3989 27.4871 33.4316 27.4674 33.4316 27.3936C33.4316 27.3143 33.4104 27.3072 33.2163 27.3217C33.1272 27.3284 33.0485 27.3374 33.0414 27.3417C33.0343 27.3461 32.9783 27.3561 32.9169 27.3639C32.8554 27.3718 32.6793 27.3943 32.5253 27.414C32.3714 27.4337 32.2245 27.4498 32.1989 27.4498C32.1732 27.4498 32.1489 27.4552 32.1448 27.4619C32.1406 27.4686 32.0975 27.4776 32.0489 27.4819C32.0003 27.4862 31.8972 27.4969 31.8198 27.5057C31.7095 27.5181 31.231 27.5638 30.8766 27.5957C30.8534 27.5978 30.8027 27.6039 30.764 27.6093C30.5647 27.6369 29.3479 27.7162 29.2734 27.7064C29.2589 27.7044 29.239 27.7095 29.2292 27.7175C29.2195 27.7256 29.1871 27.7314 29.1572 27.7304C29.1273 27.7294 29.0427 27.7324 28.9691 27.7371C28.5193 27.7659 28.0819 27.7755 26.9913 27.7806C25.9004 27.7856 25.5513 27.7814 24.7671 27.7537C24.6509 27.7495 24.4261 27.7421 24.2673 27.7371C24.1086 27.7321 23.9672 27.7219 23.953 27.7145C23.9389 27.7071 23.9195 27.704 23.91 27.7076C23.8917 27.7147 23.1678 27.686 22.7329 27.6611C22.4061 27.6423 22.0212 27.607 21.9657 27.5907C21.9425 27.5839 21.7905 27.5648 21.6279 27.5484C21.276 27.5127 21.159 27.4966 21.0648 27.4707C21.0261 27.4601 20.9152 27.4412 20.8184 27.4288C20.5831 27.3986 20.3112 27.3526 20.2764 27.3371C20.261 27.3302 20.1786 27.3145 20.0934 27.3023C20.0083 27.29 19.9101 27.2744 19.8752 27.2676C19.8404 27.2607 19.7739 27.2479 19.7274 27.2391C19.681 27.2302 19.6303 27.2177 19.6148 27.2112C19.5854 27.1988 19.5504 27.1913 19.2488 27.1326C19.1482 27.1131 19.0531 27.0907 19.0377 27.083C19.0222 27.0752 18.9778 27.0633 18.9391 27.0565C18.9004 27.0497 18.8149 27.0334 18.7491 27.0203C18.6833 27.0072 18.6038 26.992 18.5726 26.9865C18.5413 26.981 18.5065 26.9707 18.4952 26.9637C18.4838 26.9566 18.4429 26.9468 18.4042 26.9418C18.2303 26.9194 18.0229 26.882 18.0107 26.8708C17.9869 26.8489 17.9537 26.8576 17.9043 26.8988Z" fill="#D9B844"/>
</g>
<defs>
<filter id="filter0_d_435_859" x="0" y="0" width="50" height="50" filterUnits="userSpaceOnUse" color-interpolation-filters="sRGB">
<feFlood flood-opacity="0" result="BackgroundImageFix"/>
<feColorMatrix in="SourceAlpha" type="matrix" values="0 0 0 0 0 0 0 0 0 0 0 0 0 0 0 0 0 0 127 0" result="hardAlpha"/>
<feOffset/>
<feGaussianBlur stdDeviation="5"/>
<feComposite in2="hardAlpha" operator="out"/>
<feColorMatrix type="matrix" values="0 0 0 0 0.85098 0 0 0 0 0.721569 0 0 0 0 0.266667 0 0 0 0.15 0"/>
<feBlend mode="normal" in2="BackgroundImageFix" result="effect1_dropShadow_435_859"/>
<feBlend mode="normal" in="SourceGraphic" in2="effect1_dropShadow_435_859" result="shape"/>
</filter>
</defs>
</svg>
