<svg width="52" height="52" viewBox="0 0 52 52" fill="none" xmlns="http://www.w3.org/2000/svg">
<g filter="url(#filter0_d_637_6395)">
<path d="M6 26C6 14.9543 14.9543 6 26 6C37.0457 6 46 14.9543 46 26C46 37.0457 37.0457 46 26 46H8.61682C7.17159 46 6 44.8284 6 43.3832V26Z" fill="#E8E8E8"/>
<path d="M42.25 26C42.25 34.9746 34.9746 42.25 26 42.25C17.0254 42.25 9.75 34.9746 9.75 26C9.75 17.0254 17.0254 9.75 26 9.75C34.9746 9.75 42.25 17.0254 42.25 26Z" fill="#E8E8E8"/>
</g>
<circle cx="26" cy="26" r="16" fill="white"/>
<path fill-rule="evenodd" clip-rule="evenodd" d="M26.8774 10.0232C27.5777 10.0607 28.3967 10.1634 29.0997 10.3017C35.4495 11.5509 40.4483 16.55 41.6975 22.9002C42.7289 28.1435 41.0878 33.5367 37.3115 37.3131C35.6889 38.9359 33.7629 40.1754 31.5887 40.9962C30.5935 41.3719 29.3872 41.68 28.3108 41.8335C25.3553 42.2547 22.4419 41.8754 19.6993 40.7122C19.2632 40.5272 18.342 40.0622 17.9214 39.8146C13.9552 37.4801 11.1833 33.5827 10.3017 29.1008C9.45144 24.7787 10.4167 20.2931 12.9656 16.7217C16.1612 12.2441 21.3846 9.72904 26.8774 10.0232ZM18.1403 15.8661C18.1254 15.8966 18.0911 16.0667 18.0639 16.2439C18.0367 16.4211 18.0076 16.5711 17.9992 16.5773C17.9909 16.5834 17.9715 16.6834 17.9561 16.7995C17.9113 17.1389 17.8222 17.6514 17.7997 17.6996C17.7883 17.7241 17.7681 17.8241 17.7549 17.9218C17.7141 18.2247 17.6141 18.788 17.599 18.7997C17.5912 18.8058 17.5719 18.9008 17.5561 19.0109C17.5171 19.2832 17.4248 19.7565 17.4001 19.8109C17.389 19.8354 17.364 19.9454 17.3446 20.0554C17.3251 20.1654 17.2851 20.3554 17.2556 20.4777C17.226 20.5999 17.1625 20.8667 17.1144 21.0705C17.0663 21.2743 17.015 21.4743 17.0003 21.515C16.9857 21.5556 16.9346 21.7463 16.8868 21.9387C16.839 22.1311 16.7901 22.3061 16.7783 22.3276C16.7664 22.3491 16.7254 22.4918 16.687 22.6446C16.6487 22.7974 16.6036 22.9524 16.5867 22.9891C16.5698 23.0257 16.5203 23.1804 16.4767 23.3328C16.4331 23.4851 16.3899 23.6151 16.3809 23.6217C16.3717 23.6282 16.3365 23.7286 16.3025 23.8447C16.2686 23.9608 16.2219 24.0958 16.1989 24.1447C16.1759 24.1936 16.1202 24.3436 16.0752 24.4781C16.0302 24.6126 15.9846 24.7259 15.974 24.73C15.9633 24.7341 15.9547 24.7479 15.9547 24.7607C15.9547 24.8042 15.7936 25.2336 15.7721 25.2473C15.7604 25.2548 15.7524 25.2648 15.7543 25.2696C15.7562 25.2743 15.7471 25.3063 15.734 25.3408C15.7209 25.3752 15.7102 25.4071 15.7102 25.4118C15.7102 25.4197 15.5382 25.8012 15.3996 26.1005C15.3038 26.3075 15.1562 26.6402 15.0842 26.8117C15.0482 26.8973 14.9943 27.009 14.9645 27.0601C14.8973 27.1749 14.8947 27.2687 14.9571 27.325C14.9943 27.3586 15.0321 27.3661 15.1404 27.3616C15.3234 27.3539 16.3357 27.276 16.8325 27.2312C17.3977 27.1803 19.3755 27.1799 19.9326 27.2306C20.1465 27.25 20.5065 27.2812 20.7327 27.2999C21.2745 27.3445 22.1322 27.4424 22.1883 27.466C22.2127 27.4763 22.3627 27.5005 22.5216 27.5198C22.844 27.5589 23.259 27.6352 23.3115 27.6648C23.3646 27.6948 23.8048 27.7431 23.8718 27.7262C23.9809 27.6989 23.9854 27.659 23.9342 27.1707C23.9084 26.9243 23.8775 26.6828 23.8656 26.6339C23.8536 26.585 23.8289 26.325 23.8106 26.0561C23.7924 25.7871 23.7632 25.4471 23.7456 25.3004C23.7281 25.1537 23.7078 24.9387 23.7005 24.8226C23.6932 24.7065 23.6772 24.5364 23.6649 24.4448C23.6058 24.0024 23.5704 22.8626 23.5573 20.9815C23.5443 19.094 23.5427 19.0397 23.5008 19.0091C23.477 18.9917 23.4265 18.9775 23.3885 18.9775C23.3505 18.9775 23.3099 18.969 23.2983 18.9585C23.2867 18.948 23.1872 18.9123 23.0772 18.8791C22.9672 18.8459 22.8372 18.7999 22.7883 18.7768C22.7394 18.7538 22.5944 18.6985 22.4661 18.654C22.3377 18.6095 22.2277 18.5655 22.2216 18.5563C22.2155 18.5471 22.1505 18.5175 22.0772 18.4904C22.0038 18.4633 21.8992 18.4163 21.8446 18.3859C21.7899 18.3556 21.6655 18.2962 21.5679 18.2539C21.4704 18.2116 21.3851 18.1696 21.3783 18.1606C21.3716 18.1515 21.281 18.101 21.1771 18.0482C20.8389 17.8765 20.5922 17.7213 20.2326 17.454C20.1593 17.3995 20.0419 17.3147 19.9718 17.2655C19.9016 17.2163 19.8266 17.1579 19.8051 17.1359C19.7836 17.1137 19.7184 17.0636 19.6604 17.0243C19.6023 16.9851 19.5548 16.9459 19.5548 16.9373C19.5548 16.9288 19.5096 16.8932 19.4545 16.8584C19.3993 16.8236 19.3418 16.7781 19.3267 16.7575C19.3116 16.7368 19.2643 16.6961 19.2215 16.667C19.1066 16.5889 19.0014 16.4906 18.6439 16.1277C18.3424 15.8217 18.3164 15.8008 18.2443 15.8055C18.1869 15.8092 18.1604 15.8247 18.1403 15.8661ZM25.8741 17.4766C25.8073 17.5234 25.7934 17.6299 25.8352 17.7751C25.8549 17.8436 25.8797 17.9166 25.8904 17.9374C25.9109 17.9775 26.0289 18.5937 26.0555 18.7997C26.0642 18.867 26.0793 18.9371 26.089 18.9556C26.153 19.0776 26.2934 20.7882 26.2914 21.4222C26.2894 22.0711 26.1975 23.2375 26.1188 23.6113C26.1008 23.6969 26.0621 23.8887 26.0327 24.0376C25.9718 24.3468 25.9174 24.5659 25.8883 24.6192C25.8773 24.6394 25.8326 24.7905 25.789 24.955C25.7453 25.1194 25.7017 25.2594 25.6921 25.2661C25.6824 25.2727 25.6416 25.4082 25.6013 25.5671C25.5611 25.726 25.5149 25.886 25.4986 25.9227C25.4824 25.9594 25.4377 26.1044 25.3994 26.245C25.361 26.3855 25.3159 26.5305 25.2992 26.5672C25.2825 26.6039 25.2577 26.6789 25.2441 26.7339C25.2098 26.8724 25.1335 27.1095 25.0975 27.1895C25.0809 27.2262 25.0333 27.3612 24.9917 27.4895C24.95 27.6179 24.9008 27.7579 24.8825 27.8007C24.8427 27.8931 24.8612 27.9597 24.9413 28.0121C24.9936 28.0464 25.0165 28.0435 25.3703 27.9586C25.5758 27.9093 25.8428 27.8432 25.9636 27.8117C26.1681 27.7584 26.4219 27.7074 26.8552 27.6327C27.2533 27.5641 28.149 27.5716 28.6664 27.6479C28.7458 27.6596 28.9008 27.6786 29.0108 27.6901C29.1208 27.7016 29.3132 27.7274 29.4384 27.7474C29.6525 27.7817 29.6695 27.7816 29.7246 27.7454C29.7819 27.7079 29.7829 27.7034 29.7685 27.5372C29.7603 27.4437 29.7445 27.3373 29.7333 27.3006C29.7006 27.1939 29.625 26.3584 29.5889 25.7037C29.5706 25.3719 29.5452 24.9654 29.5325 24.8004C29.5198 24.6353 29.4944 24.1053 29.476 23.6225C29.3988 21.5889 29.4065 21.7103 29.3502 21.649C29.3224 21.6188 29.2347 21.5509 29.1553 21.4981C28.9776 21.38 28.7258 21.1993 28.7108 21.1792C28.7047 21.171 28.6597 21.1351 28.6108 21.0994C28.3403 20.902 27.7183 20.2477 27.3649 19.7885C27.2801 19.6784 27.2007 19.5724 27.1885 19.5529C27.1763 19.5335 27.1363 19.4765 27.0996 19.4263C27.0301 19.3311 26.8749 19.0887 26.7641 18.9022C26.7286 18.8424 26.6769 18.7574 26.6491 18.7133C26.6213 18.6691 26.5869 18.608 26.5726 18.5775C26.5583 18.5469 26.5334 18.506 26.5174 18.4867C26.5013 18.4673 26.4574 18.3873 26.4197 18.3089C26.3821 18.2305 26.3235 18.1213 26.2895 18.0663C26.2348 17.9777 26.1657 17.8159 26.0996 17.6218C26.0399 17.4462 25.9761 17.4051 25.8741 17.4766ZM30.2326 20.0004C30.193 20.0441 30.1936 20.0601 30.2518 20.5505C30.3201 21.1262 30.3296 21.1978 30.4202 21.8223C30.4565 22.0729 30.4973 22.3779 30.511 22.5001C30.5246 22.6224 30.5445 22.7424 30.5552 22.7668C30.575 22.8124 30.6979 23.6525 30.7226 23.9114C30.7302 23.9908 30.7452 24.0758 30.756 24.1003C30.7804 24.1555 30.8774 24.8896 30.9117 25.2782C30.9257 25.4371 30.9457 25.5871 30.9561 25.6116C31.0079 25.7333 31.0662 26.7684 31.0428 27.153C31.0231 27.4777 30.9829 27.7937 30.9546 27.8465C30.9438 27.8666 30.9283 27.9487 30.9201 28.0288C30.9054 28.1729 30.9058 28.1747 30.9692 28.2071C31.0256 28.236 31.0726 28.2358 31.3665 28.206C31.884 28.1534 33.1875 28.1549 33.5761 28.2086C33.7402 28.2312 33.8902 28.2579 33.9094 28.2678C33.9286 28.2778 34.142 28.3218 34.3836 28.3656C34.6252 28.4094 34.8402 28.4549 34.8614 28.4667C34.8826 28.4785 35.02 28.5192 35.1667 28.5571C35.3133 28.595 35.4633 28.6409 35.5 28.6591C35.7243 28.7706 35.9438 28.8333 35.9442 28.786C35.9444 28.7717 35.952 28.7525 35.9611 28.7434C35.992 28.7125 35.9771 28.6123 35.9334 28.5563C35.9095 28.5258 35.8897 28.4924 35.8894 28.4821C35.8891 28.4718 35.8539 28.4225 35.8111 28.3725C35.7684 28.3225 35.7334 28.274 35.7334 28.2648C35.7334 28.2555 35.6772 28.1698 35.6086 28.0743C35.54 27.9788 35.4756 27.8792 35.4655 27.8528C35.4555 27.8265 35.4379 27.7993 35.4266 27.7923C35.4075 27.7805 35.0368 27.2421 34.9111 27.0436C34.8805 26.9954 34.7797 26.8434 34.6869 26.706C34.5942 26.5686 34.4568 26.3611 34.3815 26.245C34.3063 26.1288 34.2272 26.0089 34.2057 25.9785C34.1842 25.9481 34.1311 25.8631 34.0877 25.7896C34.0443 25.7161 33.9768 25.612 33.9377 25.5582C33.8986 25.5044 33.8666 25.4501 33.8666 25.4374C33.8666 25.4248 33.8475 25.3938 33.8241 25.3685C33.8007 25.3433 33.749 25.2626 33.7092 25.1893C33.6695 25.116 33.6144 25.0259 33.5869 24.9893C33.5594 24.9526 33.5136 24.881 33.4851 24.8301C33.3956 24.6706 33.2421 24.4151 33.1801 24.3225C33.1473 24.2736 33.0916 24.1786 33.0564 24.1114C33.0211 24.0442 32.969 23.9582 32.9405 23.9204C32.9121 23.8826 32.8888 23.8435 32.8888 23.8336C32.8888 23.8237 32.8654 23.7846 32.8369 23.7468C32.8084 23.709 32.7468 23.608 32.7 23.5225C32.6532 23.4369 32.6023 23.3519 32.5869 23.3335C32.5716 23.3152 32.5215 23.2302 32.4756 23.1446C32.4298 23.0591 32.3701 22.9591 32.3431 22.9224C32.316 22.8857 32.2702 22.8118 32.2413 22.7582C32.2124 22.7046 32.1786 22.6446 32.1662 22.6249C32.1539 22.6052 32.1144 22.539 32.0786 22.4779C32.0427 22.4168 31.9904 22.3358 31.9622 22.298C31.934 22.2602 31.911 22.2217 31.911 22.2125C31.911 22.2033 31.856 22.1114 31.7887 22.0083C31.7215 21.9051 31.6665 21.8163 31.6665 21.8109C31.6665 21.8055 31.624 21.7364 31.5721 21.6574C31.5201 21.5783 31.4276 21.4333 31.3665 21.3351C31.3054 21.2369 31.1875 21.0589 31.1045 20.9394C31.0214 20.8199 30.9188 20.6721 30.8764 20.611C30.8339 20.5499 30.7668 20.4575 30.7273 20.4057C30.6877 20.3539 30.5953 20.2317 30.522 20.1341C30.3769 19.941 30.313 19.9115 30.2326 20.0004ZM14.7988 28.9978C14.731 29.0545 14.7252 29.0675 14.7469 29.1151C14.7604 29.1446 14.8051 29.1848 14.8463 29.2045C14.9877 29.2721 15.0895 29.312 15.1209 29.312C15.216 29.312 15.5332 29.4364 15.638 29.5149C15.7784 29.6201 15.8419 29.7362 15.9096 30.012C15.9999 30.3801 16.1745 30.6435 16.4693 30.8562C16.5573 30.9197 16.9453 31.0677 17.0238 31.0677C17.0371 31.0677 17.0795 31.0817 17.118 31.0989C17.1565 31.1161 17.228 31.1363 17.2769 31.1439C17.4359 31.1686 18.1412 31.2705 18.2325 31.2821C18.2814 31.2883 18.3414 31.3018 18.3659 31.3121C18.3903 31.3225 18.4753 31.3366 18.5548 31.3435C18.6895 31.3553 18.8865 31.379 19.467 31.4535C19.5959 31.4701 19.7209 31.4937 19.7448 31.5061C19.7687 31.5185 19.8532 31.5344 19.9326 31.5415C20.0121 31.5487 20.2021 31.5707 20.3549 31.5905C20.5076 31.6103 20.7377 31.6401 20.866 31.6567C20.9943 31.6733 21.1343 31.6969 21.1771 31.709C21.2199 31.7211 21.3199 31.7375 21.3994 31.7454C21.8065 31.7858 22.6633 31.8939 22.7216 31.9123C22.7583 31.9238 22.8983 31.9444 23.0328 31.9581C23.1672 31.9717 23.3872 31.9961 23.5217 32.0123C23.6561 32.0285 23.8761 32.0533 24.0106 32.0673C24.145 32.0814 24.273 32.1026 24.2949 32.1144C24.3168 32.1263 24.4718 32.1504 24.6393 32.168C25.1295 32.2195 25.4868 32.2652 25.6773 32.3006C25.7751 32.3187 26.0701 32.3585 26.3329 32.389C27.0833 32.4759 27.2033 32.491 27.3219 32.5135C27.383 32.5251 27.528 32.545 27.6441 32.5578C28.2368 32.623 28.6231 32.6691 28.733 32.6879C29.1193 32.7537 29.3016 32.7672 30.522 32.8203C30.9469 32.8387 31.6317 32.8126 31.8332 32.7702C32.032 32.7284 32.4683 32.5742 32.549 32.5173C32.5831 32.4932 32.661 32.4482 32.7221 32.4173C32.7832 32.3864 32.857 32.3404 32.886 32.315C32.9151 32.2896 32.9876 32.2376 33.0471 32.1994C33.1067 32.1611 33.1555 32.1226 33.1555 32.1137C33.1555 32.1048 33.198 32.0669 33.2499 32.0295C33.3019 31.9921 33.38 31.9279 33.4237 31.8868C33.4673 31.8458 33.5709 31.7572 33.6539 31.69C33.7369 31.6228 33.8247 31.5493 33.849 31.5267C33.9137 31.4665 34.4289 31.078 34.5866 30.9703C34.7638 30.8495 34.9087 30.7662 34.9778 30.7457C35.0083 30.7366 35.0533 30.7112 35.0778 30.6893C35.1268 30.6452 35.6739 30.4257 35.8667 30.3727C35.9339 30.3542 36.0319 30.3328 36.0844 30.3252C36.1368 30.3175 36.1968 30.3022 36.2177 30.2911C36.2385 30.2801 36.3706 30.2606 36.5112 30.2479C37.1371 30.1913 37.9011 30.1054 37.9112 30.0904C37.9173 30.0814 37.9673 30.0683 38.0224 30.0613C38.3754 30.0163 38.8823 29.9582 39.0335 29.9455C39.2596 29.9264 39.3113 29.8955 39.3113 29.7789C39.3113 29.6537 39.2778 29.6425 38.9714 29.6654C38.8307 29.6759 38.7065 29.6901 38.6953 29.697C38.6841 29.7039 38.5956 29.7197 38.4987 29.732C38.4017 29.7444 38.1236 29.7799 37.8806 29.811C37.6376 29.8421 37.4057 29.8676 37.3652 29.8676C37.3247 29.8676 37.2863 29.8762 37.2798 29.8867C37.2733 29.8972 37.2052 29.9114 37.1285 29.9183C37.0518 29.9251 36.889 29.942 36.7667 29.9558C36.5926 29.9755 35.8372 30.0475 35.2778 30.0979C35.2411 30.1012 35.1611 30.1109 35.1 30.1194C34.7854 30.163 32.8645 30.2881 32.7469 30.2726C32.7239 30.2696 32.6925 30.2775 32.6771 30.2903C32.6617 30.3031 32.6106 30.3122 32.5634 30.3106C32.5162 30.309 32.3826 30.3137 32.2665 30.3212C31.5564 30.3666 30.8659 30.3818 29.1442 30.3898C27.422 30.3978 26.8709 30.3911 25.6329 30.3473C25.4495 30.3408 25.0945 30.329 24.844 30.3212C24.5934 30.3133 24.3701 30.2972 24.3478 30.2855C24.3254 30.2738 24.2949 30.2689 24.2799 30.2746C24.2509 30.2857 23.1081 30.2405 22.4216 30.2011C21.9057 30.1715 21.298 30.1158 21.2105 30.09C21.1738 30.0793 20.9338 30.0492 20.6771 30.0232C20.1217 29.967 19.9369 29.9415 19.7882 29.9006C19.7271 29.8838 19.552 29.854 19.3993 29.8344C19.0278 29.7867 18.5985 29.7142 18.5437 29.6897C18.5192 29.6788 18.3892 29.6541 18.2548 29.6347C18.1203 29.6153 17.9653 29.5907 17.9103 29.5799C17.8553 29.5691 17.7503 29.5489 17.677 29.535C17.6036 29.521 17.5236 29.5012 17.4992 29.4909C17.4528 29.4714 17.3975 29.4595 16.9214 29.3669C16.7625 29.336 16.6125 29.3007 16.588 29.2885C16.5636 29.2763 16.4936 29.2575 16.4325 29.2467C16.3713 29.236 16.2363 29.2103 16.1324 29.1896C16.0285 29.169 15.9032 29.1449 15.8538 29.1362C15.8045 29.1275 15.7495 29.1113 15.7316 29.1002C15.7137 29.089 15.6491 29.0735 15.588 29.0656C15.3134 29.0303 14.9861 28.9713 14.9668 28.9536C14.9292 28.919 14.8768 28.9328 14.7988 28.9978Z" fill="#D9B844"/>
<defs>
<filter id="filter0_d_637_6395" x="0" y="0" width="52" height="52" filterUnits="userSpaceOnUse" color-interpolation-filters="sRGB">
<feFlood flood-opacity="0" result="BackgroundImageFix"/>
<feColorMatrix in="SourceAlpha" type="matrix" values="0 0 0 0 0 0 0 0 0 0 0 0 0 0 0 0 0 0 127 0" result="hardAlpha"/>
<feOffset/>
<feGaussianBlur stdDeviation="3"/>
<feComposite in2="hardAlpha" operator="out"/>
<feColorMatrix type="matrix" values="0 0 0 0 0 0 0 0 0 0 0 0 0 0 0 0 0 0 0.6 0"/>
<feBlend mode="normal" in2="BackgroundImageFix" result="effect1_dropShadow_637_6395"/>
<feBlend mode="normal" in="SourceGraphic" in2="effect1_dropShadow_637_6395" result="shape"/>
</filter>
</defs>
</svg>
