<svg width="52" height="52" viewBox="0 0 52 52" fill="none" xmlns="http://www.w3.org/2000/svg">
<g filter="url(#filter0_d_432_764)">
<path d="M6 26C6 14.9543 14.9543 6 26 6C37.0457 6 46 14.9543 46 26C46 37.0457 37.0457 46 26 46H8.61682C7.17159 46 6 44.8284 6 43.3832V26Z" fill="#E8E8E8"/>
<path d="M42.25 26C42.25 34.9746 34.9746 42.25 26 42.25C17.0254 42.25 9.75 34.9746 9.75 26C9.75 17.0254 17.0254 9.75 26 9.75C34.9746 9.75 42.25 17.0254 42.25 26Z" fill="#E8E8E8"/>
</g>
<path fill-rule="evenodd" clip-rule="evenodd" d="M25.0914 9.45253C24.3661 9.49136 23.5178 9.59766 22.7897 9.7409C16.2132 11.0348 11.0359 16.2124 9.74206 22.7893C8.67375 28.2199 10.3735 33.8058 14.2846 37.7171C15.9652 39.3977 17.96 40.6815 20.2118 41.5317C21.2425 41.9208 22.492 42.2399 23.6068 42.3988C26.6679 42.8351 29.6853 42.4422 32.5259 41.2375C32.9776 41.0459 33.9316 40.5643 34.3672 40.3079C38.4751 37.8899 41.346 33.8534 42.2591 29.2115C43.1397 24.735 42.14 20.0892 39.5 16.3902C36.1903 11.7527 30.7804 9.14783 25.0914 9.45253ZM23.1925 18.924C23.2967 18.9724 23.4533 19.1167 24.0769 19.7386C24.7417 20.4015 24.8307 20.4986 24.802 20.5289C24.6731 20.6648 24.4074 20.9334 24.2361 21.1005C24.1242 21.2098 23.9948 21.3393 23.9485 21.3882C23.8303 21.5133 22.8525 22.4739 22.7489 22.5666C22.7019 22.6087 22.6264 22.7094 22.5811 22.7904L22.4988 22.9376L21.0791 22.9441C19.5009 22.9512 19.4785 22.9495 19.3567 22.8166C19.286 22.7394 19.2339 22.6106 19.2339 22.5131C19.2339 22.3305 19.2159 22.3506 20.8409 20.7227C22.3225 19.2384 22.6316 18.9482 22.7897 18.8926C22.9114 18.8499 23.0575 18.8612 23.1925 18.924ZM26.9455 19.6621C27.0493 19.7125 27.3516 20.0027 28.7017 21.3482C29.6492 22.2924 30.346 23.0045 30.3647 23.0476C30.446 23.2349 30.3723 23.4921 30.2058 23.6023L30.1125 23.664L26.7618 23.6756C24.919 23.6819 23.37 23.6787 23.3196 23.6685C23.0801 23.6199 22.941 23.376 23.0082 23.1221C23.0328 23.0289 23.1765 22.8779 24.5812 21.4693C25.4315 20.6167 26.1821 19.8761 26.2492 19.8235C26.546 19.591 26.7172 19.5514 26.9455 19.6621ZM34.3857 23.2983C34.4761 23.3438 36.7849 25.6402 36.8343 25.7338C36.8923 25.8437 36.8632 25.9895 36.7632 26.0896L36.6798 26.173L36.419 26.1807L36.1582 26.1883L36.1282 26.1158C36.1107 26.0736 35.5896 25.5358 34.8806 24.8284L33.663 23.6135L33.8071 23.4801C33.8864 23.4067 33.9827 23.3275 34.0211 23.304C34.1084 23.2508 34.2857 23.248 34.3857 23.2983ZM22.4422 23.336C22.5365 23.6822 22.6672 23.8965 22.8664 24.0316L22.9969 24.1201L22.9898 24.3931L22.9827 24.6661L22.8341 24.7335C22.7194 24.7855 22.6283 24.8567 22.4333 25.0469L22.181 25.2929L21.644 24.7586C21.3486 24.4647 21.0632 24.1948 21.0098 24.159C20.8774 24.07 20.6534 23.9978 20.5102 23.9978C20.2942 23.9978 20.0641 24.0975 19.8694 24.2755L19.74 24.3937V23.9466C19.74 23.5122 19.7414 23.4981 19.7918 23.4523C19.87 23.381 19.9434 23.349 20.0721 23.3301C20.1363 23.3207 20.6941 23.3117 21.3116 23.3101C22.1923 23.3079 22.4361 23.3135 22.4422 23.336ZM33.2348 23.9428C33.3253 23.9883 35.6341 26.2847 35.6834 26.3783C35.7414 26.4882 35.7123 26.6341 35.6123 26.7341L35.529 26.8176L35.243 26.8251L34.957 26.8328L34.9105 26.7415C34.8821 26.686 34.3999 26.1873 33.6767 25.4657L32.4894 24.2811L32.6434 24.137C32.7281 24.0578 32.8296 23.9734 32.8688 23.9494C32.9576 23.8953 33.1341 23.8921 33.2348 23.9428ZM18.0385 24.0888C18.0945 24.1263 18.3475 24.3647 18.6006 24.6188L19.061 25.0808L18.2669 25.8721C17.5344 26.602 17.4003 26.7539 17.3633 26.8952L17.3505 26.9442L16.3529 26.9441C15.4174 26.944 15.3508 26.9413 15.2844 26.9007C15.2098 26.8553 15.1366 26.7293 15.1366 26.6465C15.1366 26.6195 15.151 26.5641 15.1687 26.5233C15.206 26.4371 17.5007 24.1421 17.6224 24.0692C17.7456 23.9955 17.9105 24.0033 18.0385 24.0888ZM29.6945 24.0967C29.745 24.1195 29.8097 24.1601 29.8383 24.1871C29.8902 24.2357 29.8905 24.2397 29.8905 24.9072V25.5784L29.3718 26.0913C29.0865 26.3733 28.8275 26.6376 28.7963 26.6785C28.7171 26.7823 28.6475 26.9981 28.6475 27.1398C28.6475 27.3624 28.7983 27.6847 28.9501 27.7864L29.0157 27.8304L29.0157 28.6302L29.0158 29.4301H27.5082H26.0006L26.0007 28.9525L26.0007 28.4749L26.0663 28.4309C26.1518 28.3737 26.2655 28.2056 26.3254 28.0479C26.363 27.949 26.3713 27.8835 26.3647 27.7383C26.3496 27.4033 26.3851 27.4472 25.055 26.1184C24.4041 25.4681 23.8222 24.8964 23.7618 24.8481C23.7015 24.7997 23.6161 24.7471 23.572 24.7311L23.4917 24.7021V24.4691C23.4917 24.2567 23.4963 24.2318 23.5435 24.1888C23.6216 24.1177 23.695 24.0857 23.8239 24.0664C23.888 24.0568 25.2146 24.0504 26.7717 24.0521C29.4432 24.0552 29.6079 24.0577 29.6945 24.0967ZM20.7315 24.5952C20.7875 24.6327 21.056 24.8867 21.3281 25.1598L21.823 25.6562L20.9987 26.4786C20.5454 26.9309 20.1533 27.3346 20.1276 27.3757L20.0807 27.4506L19.0645 27.4505C18.1108 27.4504 18.0439 27.4477 17.9773 27.4071C17.9028 27.3617 17.8296 27.2357 17.8296 27.1529C17.8296 27.1259 17.844 27.0705 17.8617 27.0297C17.899 26.9435 20.1937 24.6485 20.3154 24.5756C20.4385 24.5019 20.6035 24.5097 20.7315 24.5952ZM32.0149 24.5643C32.1054 24.6098 34.4142 26.9062 34.4635 26.9998C34.5216 27.1097 34.4924 27.2555 34.3924 27.3556L34.3089 27.439L31.8408 27.4449C29.4572 27.4505 29.3701 27.4492 29.3017 27.4073C29.2271 27.3616 29.1539 27.2357 29.1539 27.1529C29.1539 27.1259 29.1683 27.0705 29.186 27.0297C29.2233 26.9435 31.518 24.6485 31.6397 24.5756C31.738 24.5168 31.9102 24.5116 32.0149 24.5643ZM23.3836 25.2088C23.474 25.2544 25.7828 27.5507 25.8322 27.6443C25.8902 27.7542 25.8611 27.9001 25.761 28.0001L25.6776 28.0836L23.2094 28.0894C20.8259 28.095 20.7388 28.0938 20.6703 28.0518C20.5957 28.0062 20.5226 27.8802 20.5226 27.7974C20.5226 27.7704 20.537 27.715 20.5546 27.6742C20.592 27.588 22.8867 25.293 23.0084 25.2201C23.1066 25.1613 23.2789 25.1561 23.3836 25.2088ZM36.4273 26.5268L36.4848 26.5693L36.4907 28.3758C36.4965 30.1384 36.4955 30.1833 36.4519 30.2228C36.3763 30.2912 36.24 30.3258 36.0417 30.3268L35.8518 30.3278L35.8519 28.7684L35.852 27.2089L35.9176 27.1649C36.063 27.0675 36.2201 26.754 36.2201 26.5612V26.455L36.2949 26.4697C36.336 26.4777 36.3956 26.5034 36.4273 26.5268ZM35.2733 27.1685L35.334 27.2138L35.3398 29.0203C35.3456 30.7829 35.3447 30.8279 35.3011 30.8673C35.2218 30.939 35.0881 30.9703 34.8564 30.9713L34.6319 30.9724L34.632 29.4014L34.6321 27.8304L34.6977 27.7864C34.839 27.6917 35.0002 27.3761 35.0002 27.1941V27.0993L35.1064 27.1113C35.1648 27.1179 35.2399 27.1436 35.2733 27.1685ZM17.359 27.3628C17.4099 27.531 17.53 27.7222 17.6242 27.7854L17.6913 27.8304L17.6914 29.4589L17.6915 31.0875L16.7305 31.0864C15.7261 31.0854 15.6563 31.0792 15.5494 30.9825C15.5061 30.9433 15.5049 30.8924 15.5049 29.1424C15.5049 27.4496 15.5073 27.3404 15.5456 27.3057C15.6294 27.2299 15.7055 27.2233 16.5082 27.2218L17.3159 27.2204L17.359 27.3628ZM20.0162 27.8152C20.0162 28.0085 20.1771 28.3361 20.3187 28.4309L20.3843 28.4749L20.3844 30.0344L20.3844 31.5939L19.4235 31.5928C18.4191 31.5918 18.3492 31.5856 18.2424 31.4889C18.1991 31.4497 18.1978 31.3988 18.1978 29.6488C18.1978 27.956 18.2003 27.8468 18.2386 27.8121C18.3224 27.7363 18.3984 27.7297 19.2048 27.7282L20.0162 27.7268V27.8152ZM34.0491 27.7868L34.1141 27.8353L34.12 29.6418C34.1257 31.4044 34.1248 31.4493 34.0812 31.4888C33.967 31.5921 33.9733 31.5918 31.8239 31.5918C29.6749 31.5918 29.6807 31.5921 29.5667 31.4889C29.5234 31.4497 29.5222 31.3988 29.5222 29.6488C29.5222 27.956 29.5246 27.8468 29.5629 27.8121C29.5853 27.7918 29.6294 27.7649 29.6608 27.7523C29.6975 27.7375 30.4756 27.7309 31.851 27.7338C33.9812 27.7383 33.9842 27.7384 34.0491 27.7868ZM25.4177 28.4313L25.4827 28.4798L25.4886 30.2863C25.4944 32.0489 25.4934 32.0939 25.4498 32.1333C25.3356 32.2366 25.3419 32.2363 23.1925 32.2363C21.0435 32.2363 21.0494 32.2366 20.9353 32.1334C20.892 32.0942 20.8908 32.0434 20.8908 30.2933C20.8908 28.6005 20.8932 28.4913 20.9316 28.4566C20.954 28.4363 20.998 28.4094 21.0294 28.3968C21.0662 28.382 21.8442 28.3754 23.2196 28.3783C25.3498 28.3828 25.3528 28.3829 25.4177 28.4313Z" fill="#2F4F92"/>
<defs>
<filter id="filter0_d_432_764" x="0" y="0" width="52" height="52" filterUnits="userSpaceOnUse" color-interpolation-filters="sRGB">
<feFlood flood-opacity="0" result="BackgroundImageFix"/>
<feColorMatrix in="SourceAlpha" type="matrix" values="0 0 0 0 0 0 0 0 0 0 0 0 0 0 0 0 0 0 127 0" result="hardAlpha"/>
<feOffset/>
<feGaussianBlur stdDeviation="3"/>
<feComposite in2="hardAlpha" operator="out"/>
<feColorMatrix type="matrix" values="0 0 0 0 0 0 0 0 0 0 0 0 0 0 0 0 0 0 0.6 0"/>
<feBlend mode="normal" in2="BackgroundImageFix" result="effect1_dropShadow_432_764"/>
<feBlend mode="normal" in="SourceGraphic" in2="effect1_dropShadow_432_764" result="shape"/>
</filter>
</defs>
</svg>
