<svg width="75" height="26" viewBox="0 0 75 26" fill="none" xmlns="http://www.w3.org/2000/svg">
<path fill-rule="evenodd" clip-rule="evenodd" d="M21.4261 0.112537C21.3247 0.188514 21.2313 0.258028 21.2187 0.266937C21.1742 0.29837 21.0345 1.13412 21.0619 1.20476C21.0771 1.2441 21.1596 1.31324 21.245 1.35841C21.4545 1.4692 21.4406 1.59161 21.204 1.72035L21.0075 1.82719L21.0452 2.29152C21.066 2.54687 21.0829 3.06359 21.0829 3.43977V4.12369L21.2708 4.18837L21.4587 4.25312L21.2923 4.39453C21.1276 4.53444 21.1267 4.54021 21.2041 4.92895C21.2471 5.14508 21.2974 5.36078 21.3158 5.40821C21.3359 5.45984 21.2831 5.52434 21.1844 5.56876C21.0224 5.64166 21.0194 5.65477 21.0194 6.28398V6.92499L21.3211 7.0504C21.5361 7.1398 21.8413 7.18767 22.3847 7.2171C22.8038 7.23987 23.3927 7.29998 23.6933 7.35073C24.1904 7.43474 24.2652 7.43367 24.5189 7.33906C24.9309 7.18548 26.7905 7.10843 29.624 7.1277C32.0291 7.14407 32.0375 7.14363 32.1607 7.00811C32.2771 6.87988 32.2833 6.78006 32.2692 5.25939C32.2574 3.99696 32.2325 3.58068 32.1546 3.34309C32.0726 3.09345 32.033 3.04527 31.931 3.07156C31.785 3.10933 31.7047 2.96214 31.8057 2.84193C31.844 2.79638 31.8579 2.66081 31.8372 2.53514C31.8087 2.36123 31.8403 2.23713 31.9762 1.99057C32.1512 1.67279 32.1515 1.67003 32.0408 1.42723C31.9545 1.23826 31.9451 1.15425 31.9991 1.0545C32.0375 0.983667 32.0689 0.784283 32.0689 0.611437C32.0689 0.146604 31.975 0.101871 30.9996 0.101871C30.4129 0.101871 30.1321 0.12979 29.8964 0.211664L29.5802 0.321458L29.6171 0.590482C29.6374 0.738421 29.6207 0.98235 29.5801 1.13255C29.5192 1.3574 29.5248 1.47611 29.612 1.80461C29.6803 2.06165 29.7221 2.49379 29.7296 3.01923C29.7386 3.65591 29.7629 3.86019 29.8405 3.95028C29.9314 4.05593 29.9294 4.07331 29.8175 4.15418C29.656 4.27088 29.6094 4.26592 29.5325 4.12394C29.4794 4.02601 29.3652 3.99784 28.8793 3.96289C28.5555 3.93955 28.1604 3.87964 28.0014 3.8297L27.7123 3.73891L27.6406 3.0996C27.6011 2.74801 27.5869 2.43137 27.609 2.39598C27.6311 2.3606 27.6556 1.88215 27.6634 1.33275C27.6807 0.111658 27.6781 0.107267 26.9247 0.103941C26.6626 0.102812 26.3531 0.0749561 26.2369 0.0420808C26.0709 -0.0049734 25.9557 0.00939382 25.6976 0.109274C25.5171 0.179165 25.3486 0.256209 25.3232 0.280552C25.2979 0.304832 25.2544 0.479246 25.2266 0.668153C25.1647 1.08869 25.3354 2.24723 25.4831 2.40922C25.5631 2.49699 25.5705 2.57636 25.5221 2.83102C25.4659 3.12658 25.4718 3.15142 25.6231 3.26028L25.7836 3.37584L25.6442 3.62103C25.5383 3.8073 25.4653 3.86621 25.3406 3.86621C25.2504 3.86621 25.077 3.93259 24.9554 4.01371C24.8338 4.09483 24.6275 4.19578 24.4969 4.23794C24.2766 4.30915 24.2403 4.30187 23.9928 4.13749C23.7676 3.98792 23.7126 3.90768 23.6395 3.62259C23.5659 3.33538 23.5664 3.22671 23.6428 2.8957C23.7211 2.55666 23.7207 2.48388 23.6396 2.33086C23.5598 2.18041 23.5572 2.02181 23.6218 1.22126L23.697 0.287202L23.5489 0.1653C23.3841 0.0295958 23.3423 0.0251413 22.9031 0.0964755C22.7342 0.123955 22.4627 0.122889 22.2998 0.0942797C22.1369 0.0656079 21.9152 0.026898 21.8072 0.00826452C21.6649 -0.0162664 21.5598 0.012468 21.4261 0.112537ZM35.8791 9.51015C33.921 9.92404 32.8593 11.024 32.8792 12.6183C32.8958 13.9545 33.669 14.8258 35.3393 15.3903C35.5838 15.4729 36.2629 15.667 36.8484 15.8216C38.565 16.2749 38.9907 16.5341 38.9907 17.1263C38.9907 17.6915 38.4624 18.0744 37.5815 18.1478C36.3259 18.2524 35.5128 17.7805 35.3811 16.8706L35.3378 16.5709L33.9573 16.5539L32.5769 16.537V16.8586C32.5769 17.0354 32.6218 17.3513 32.6767 17.5606C33.1056 19.1957 34.5731 20.1714 36.7734 20.2842C38.548 20.3752 40.1026 19.9148 40.945 19.0487C41.4712 18.5077 41.7828 17.6798 41.7831 16.8218C41.7837 15.4688 41.0646 14.5904 39.4713 13.9979C39.2406 13.9121 38.4879 13.7012 37.7988 13.5291C36.3366 13.1643 35.9006 12.9754 35.7311 12.6337C35.6337 12.4372 35.6267 12.3643 35.6877 12.1816C35.8347 11.7415 36.2808 11.5214 37.0264 11.5207C37.9195 11.52 38.5547 11.9 38.644 12.4883L38.6876 12.7751H40.0775H41.4673L41.4662 12.634C41.4656 12.5563 41.425 12.3059 41.376 12.0774C41.0131 10.3859 39.4178 9.37739 37.1276 9.39163C36.6995 9.39433 36.2051 9.44126 35.8791 9.51015ZM47.1508 9.48769C46.1549 9.70633 45.3291 10.1613 44.6368 10.8726C43.916 11.6132 43.4186 12.649 43.2409 13.7795C43.1328 14.467 43.1976 15.8817 43.3658 16.5081C43.9075 18.5244 45.3507 19.865 47.3507 20.2096C49.5825 20.5941 51.6333 19.7764 52.7613 18.0522C53.4082 17.0633 53.7368 15.5512 53.5979 14.2022C53.3532 11.8255 52.0571 10.1727 49.9649 9.56975C49.3376 9.38893 47.8044 9.34426 47.1508 9.48769ZM0 10.7675V11.9595H1.55537H3.11068L3.12707 16.0219L3.14339 20.0842L4.52457 20.1012L5.90576 20.1181V16.0388V11.9595H7.49333H9.08089V10.7675V9.57546H4.54045H0V10.7675ZM10.8745 14.8256L10.8907 20.0842H12.256H13.6213L13.6382 18.1864L13.6549 16.2885H14.8949C15.9887 16.2885 16.1625 16.3026 16.3704 16.4079C16.8727 16.6624 17.1053 17.0969 17.2059 17.9685C17.2427 18.2867 17.3025 18.8048 17.3388 19.1197C17.3751 19.4347 17.4451 19.7876 17.4943 19.904L17.5838 20.1156H18.9488H20.3138L20.1958 19.849C20.0652 19.5536 19.9644 18.9342 19.9076 18.0766C19.8075 16.5678 19.3945 15.6535 18.6615 15.318L18.3665 15.1829L18.6478 15.0355C19.6666 14.5016 20.2333 13.0463 19.906 11.8049C19.6335 10.771 18.9377 10.1394 17.6482 9.75489C17.1936 9.61937 17.0697 9.61379 14.0179 9.59083L10.8583 9.56705L10.8745 14.8256ZM22.4165 10.6734V11.7713H25.2423H28.0682V12.6803V13.5894L25.4805 13.6057L22.8927 13.6221L22.8753 14.673L22.8579 15.7239H25.4631H28.0682V16.7277V17.7315H25.1457H22.2232L22.2404 18.9079L22.2577 20.0842L26.56 20.1004L30.8623 20.1165V14.846V9.57546H26.6394H22.4165V10.6734ZM55.7244 14.7671C54.6461 17.6225 53.7517 19.9941 53.7368 20.0372C53.7157 20.0984 54.018 20.1156 55.1114 20.1156C56.741 20.1156 56.5201 20.2342 56.8966 19.1578C57.0322 18.7702 57.1626 18.4036 57.1863 18.3432C57.2261 18.2422 57.3763 18.2334 59.0802 18.2337L60.9309 18.234L61.2484 19.1591L61.5659 20.0842L63.0106 20.1011C63.8052 20.1104 64.4553 20.1001 64.4553 20.0783C64.4553 20.0566 63.5645 17.6845 62.4757 14.8071L60.4961 9.57546H59.0905H57.685L55.7244 14.7671ZM65.5503 14.8256L65.5666 20.0842H66.9319H68.2972L68.314 18.1829L68.3308 16.2815L69.6578 16.3007L70.9846 16.3199L71.2285 16.5108C71.5899 16.7938 71.8051 17.2723 71.8833 17.9668C72.0553 19.4947 72.0867 19.7066 72.1702 19.904L72.2597 20.1156H73.6299H75L74.9124 19.9431C74.7614 19.6456 74.6828 19.2169 74.5856 18.1595C74.4539 16.7283 74.2934 16.1969 73.8379 15.6843C73.7249 15.5571 73.4996 15.3922 73.3374 15.318L73.0423 15.1829L73.3193 15.0378C73.6748 14.8515 74.2074 14.2952 74.363 13.9476C74.9263 12.6894 74.7109 11.3296 73.8207 10.5266C73.4462 10.1887 72.9899 9.9534 72.3241 9.75489C71.8694 9.61937 71.7456 9.61379 68.6937 9.59083L65.5341 9.56705L65.5503 14.8256ZM16.6135 11.9662C17.1852 12.2568 17.3786 12.923 17.0664 13.5268C16.7788 14.0826 16.5441 14.1488 14.8438 14.1526L13.6531 14.1554V12.9556V11.7558L14.9783 11.7822C16.242 11.8073 16.3178 11.8159 16.6135 11.9662ZM49.4369 11.9735C50.3475 12.443 50.8239 13.4309 50.8221 14.8455C50.8198 16.7184 49.991 17.8327 48.5444 17.9076C47.3906 17.9675 46.5738 17.4017 46.1616 16.2572C45.9889 15.7776 45.9206 14.4764 46.0372 13.8904C46.1929 13.1089 46.6328 12.4013 47.1653 12.0762C47.5865 11.819 47.8171 11.7689 48.4844 11.7898C49.0215 11.8066 49.1683 11.835 49.4369 11.9735ZM71.2893 11.9662C71.8611 12.2568 72.0545 12.923 71.7422 13.5268C71.4547 14.0826 71.2199 14.1488 69.5196 14.1526L68.329 14.1554V12.9556V11.7558L69.6541 11.7822C70.9179 11.8073 70.9937 11.8159 71.2893 11.9662ZM59.6952 14.4064L60.2467 16.1317L59.1032 16.1488C58.4744 16.1582 57.9463 16.1527 57.9299 16.1364C57.9135 16.1202 58.1062 15.4783 58.3581 14.71C58.61 13.9416 58.8745 13.1284 58.9458 12.9029C59.0186 12.6731 59.0905 12.5342 59.1096 12.5869C59.1284 12.6387 59.3918 13.4574 59.6952 14.4064ZM28.5127 22.233C28.1009 22.3732 26.1723 22.4608 23.4089 22.4649C21.0676 22.4683 21.0674 22.4683 20.9741 22.6066C20.8976 22.7201 20.8823 23.034 20.8892 24.3606C20.8938 25.2493 20.907 25.9857 20.9185 25.997C20.93 26.0084 21.2932 25.9864 21.7256 25.9483C22.158 25.9101 23.069 25.8658 23.75 25.8498C25.7265 25.8034 27.42 25.7129 27.5386 25.6474C27.6146 25.6053 27.6898 25.6138 27.7844 25.675C27.9075 25.7547 27.9453 25.7455 28.1774 25.5795C28.3186 25.4784 28.5405 25.3667 28.6705 25.3312C28.8758 25.2752 28.9379 25.2862 29.1445 25.415C29.3819 25.563 29.3832 25.5632 30.4874 25.5002C31.0953 25.4655 31.6987 25.4314 31.8283 25.4243C32.1129 25.4087 32.1769 25.3574 32.0702 25.2304C32.0261 25.1779 31.983 25.0289 31.9743 24.8995C31.9658 24.7701 31.9375 24.5201 31.9116 24.3439C31.8685 24.051 31.8759 24.0207 31.9984 23.989C32.1241 23.9565 32.1324 23.9132 32.1324 23.2898C32.1324 22.9242 32.1243 22.6252 32.1143 22.6252C32.1044 22.6252 31.94 22.5714 31.7492 22.5056C31.5412 22.434 31.1222 22.3693 30.7036 22.3441C30.3194 22.3209 29.7907 22.2618 29.5288 22.2127C28.9589 22.1057 28.8819 22.1073 28.5127 22.233Z" fill="#E8E8E8"/>
</svg>
